<svg version="1.1" viewBox="0 0 241.76 70.37" xmlns="http://www.w3.org/2000/svg">
 <defs>
  <style>.cls-1{fill:#d8d8d8;}.cls-2{fill:#ceecf2;}.cls-3{fill:#a0a0a0;}.cls-4{fill:#444;}.cls-5{fill:#f26b1d;}.cls-6{fill:#bcbcbc;}.cls-7{fill:#f20505;}.cls-8{fill:#1c388c;}.cls-9{fill:#231f20;}</style>
 </defs>
 <rect class="cls-9" transform="translate(228.92 -212.18) rotate(90)" x="212.18" width="16.74" height="16.74" rx="1.82" ry="1.82"/>
 <rect class="cls-9" transform="translate(282.55 -158.55) rotate(90)" x="212.18" y="53.63" width="16.74" height="16.74" rx="1.82" ry="1.82"/>
 <rect class="cls-9" transform="translate(56.76 -40.02) rotate(90)" x="40.02" width="16.74" height="16.74" rx="1.82" ry="1.82"/>
 <rect class="cls-9" transform="translate(110.39 13.61) rotate(90)" x="40.02" y="53.63" width="16.74" height="16.74" rx="1.82" ry="1.82"/>
 <rect class="cls-6" y="3.5" width="241.76" height="63.37"/>
 <rect class="cls-8" x="229.19" y="8.37" width="12.57" height="52.94"/>
 <rect class="cls-2" x="204.29" y="8.06" width="19.46" height="54.31" rx="1.51" ry="1.51"/>
 <rect class="cls-4" transform="translate(245.55 -201.8) rotate(90)" x="214.99" y="21.34" width="17.37" height="1.06" rx=".53" ry=".53"/>
 <rect class="cls-4" transform="translate(272.24 -175.12) rotate(90)" x="214.99" y="48.03" width="17.37" height="1.06" rx=".53" ry=".53"/>
 <path class="cls-2" d="M180.61,3.5v3.05c0,1,.81,1.82,1.82,1.82h13.1c1,0,1.82-.81,1.82-1.82V3.5h-16.74Z"/>
 <path class="cls-2" d="M157.56,3.5v3.05c0,1,.81,1.82,1.82,1.82h13.1c1,0,1.82-.81,1.82-1.82V3.5h-16.74Z"/>
 <path class="cls-2" d="M134.51,3.5v3.05c0,1,.81,1.82,1.82,1.82h13.1c1,0,1.82-.81,1.82-1.82V3.5h-16.74Z"/>
 <path class="cls-2" d="M111.47,3.5v3.05c0,1,.81,1.82,1.82,1.82h13.1c1,0,1.82-.81,1.82-1.82V3.5h-16.74Z"/>
 <path class="cls-2" d="M88.42,3.5v3.05c0,1,.81,1.82,1.82,1.82h13.1c1,0,1.82-.81,1.82-1.82V3.5h-16.74Z"/>
 <path class="cls-2" d="M65.37,3.5v3.05c0,1,.81,1.82,1.82,1.82h13.1c1,0,1.82-.81,1.82-1.82V3.5h-16.74Z"/>
 <path class="cls-2" d="M42.32,3.5v3.05c0,1,.81,1.82,1.82,1.82h13.1c1,0,1.82-.81,1.82-1.82V3.5h-16.74Z"/>
 <path class="cls-2" d="M19.27,3.5v3.05c0,1,.81,1.82,1.82,1.82h13.1c1,0,1.82-.81,1.82-1.82V3.5H19.27Z"/>
 <path class="cls-2" d="M36.01,66.87v-3.05c0-1-.81-1.82-1.82-1.82h-13.1c-1,0-1.82,.81-1.82,1.82v3.05s16.74,0,16.74,0Z"/>
 <path class="cls-2" d="M59.06,66.87v-3.05c0-1-.81-1.82-1.82-1.82h-13.1c-1,0-1.82,.81-1.82,1.82v3.05s16.74,0,16.74,0Z"/>
 <path class="cls-2" d="M82.11,66.87v-3.05c0-1-.81-1.82-1.82-1.82h-13.1c-1,0-1.82,.81-1.82,1.82v3.05s16.74,0,16.74,0Z"/>
 <path class="cls-2" d="M105.16,66.87v-3.05c0-1-.81-1.82-1.82-1.82h-13.1c-1,0-1.82,.81-1.82,1.82v3.05s16.74,0,16.74,0Z"/>
 <path class="cls-2" d="M128.2,66.87v-3.05c0-1-.81-1.82-1.82-1.82h-13.1c-1,0-1.82,.81-1.82,1.82v3.05s16.74,0,16.74,0Z"/>
 <path class="cls-2" d="M151.25,66.87v-3.05c0-1-.81-1.82-1.82-1.82h-13.1c-1,0-1.82,.81-1.82,1.82v3.05s16.74,0,16.74,0Z"/>
 <path class="cls-2" d="M174.3,66.87v-3.05c0-1-.81-1.82-1.82-1.82h-13.1c-1,0-1.82,.81-1.82,1.82v3.05s16.74,0,16.74,0Z"/>
 <path class="cls-2" d="M197.35,66.87v-3.05c0-1-.81-1.82-1.82-1.82h-13.1c-1,0-1.82,.81-1.82,1.82v3.05s16.74,0,16.74,0Z"/>
 <rect class="cls-1" transform="translate(258.62 -221.26) rotate(90)" x="234.45" y="16.86" width="10.98" height="3.64" rx=".73" ry=".73"/>
 <rect class="cls-1" transform="translate(291.69 -188.19) rotate(90)" x="234.45" y="49.93" width="10.98" height="3.64" rx=".73" ry=".73"/>
 <rect class="cls-7" transform="translate(20.47 16.83) rotate(90)" x="-3.67" y="16.83" width="10.98" height="3.64" rx=".73" ry=".73"/>
 <rect class="cls-7" transform="translate(53.54 49.9) rotate(90)" x="-3.67" y="49.9" width="10.98" height="3.64" rx=".73" ry=".73"/>
 <rect class="cls-2" x="6.24" y="11.29" width="9.73" height="21.56" rx="1.74" ry="1.74"/>
 <rect class="cls-2" x="6.24" y="37.51" width="9.73" height="21.56" rx="1.74" ry="1.74"/>
 <rect class="cls-8" x="23.39" y="15.75" width="168.66" height="3.86"/>
 <rect class="cls-8" x="23.39" y="50.75" width="168.66" height="3.86"/>
 <rect class="cls-3" x="23.39" y="33.25" width="168.66" height="3.86"/>
 <rect class="cls-8" x="195.48" y="10.47" width="7.37" height="49.51"/>
 <rect class="cls-5" transform="translate(217.81 -180.52) rotate(90)" x="193.67" y="16.83" width="10.98" height="3.64" rx=".73" ry=".73"/>
 <rect class="cls-5" transform="translate(250.88 -147.45) rotate(90)" x="193.67" y="49.9" width="10.98" height="3.64" rx=".73" ry=".73"/>
</svg>
