<svg version="1.1" viewBox="0 0 140.04 68.52" xmlns="http://www.w3.org/2000/svg">
 <defs>
  <style>.cls-1{fill:#023e73;}.cls-2{fill:#d8d8d8;}.cls-3{fill:#ceecf2;}.cls-4{fill:#444;}.cls-5{fill:#f20505;}.cls-6{fill:#231f20;}</style>
 </defs>
 <rect class="cls-6" transform="translate(113.54 -96.8) rotate(90)" x="96.8" width="16.74" height="16.74" rx="1.82" ry="1.82"/>
 <rect class="cls-6" transform="translate(39.94 -23.2) rotate(90)" x="23.2" width="16.74" height="16.74" rx="1.82" ry="1.82"/>
 <rect class="cls-6" transform="translate(165.31 -45.02) rotate(90)" x="96.8" y="51.78" width="16.74" height="16.74" rx="1.82" ry="1.82"/>
 <rect class="cls-6" transform="translate(91.73 28.58) rotate(90)" x="23.2" y="51.79" width="16.74" height="16.74" rx="1.82" ry="1.82"/>
 <path class="cls-1" d="M0,56.69V11.96C0,6.54,4.4,2.14,9.82,2.14l60.2,.73,60.2-.73c5.42,0,9.82,4.39,9.82,9.82V56.69c0,5.42-4.4,9.82-9.82,9.82l-60.2-.96-60.2,.96c-5.42,0-9.82-4.39-9.82-9.82Z"/>
 <rect class="cls-3" x="22.31" y="7.17" width="18.52" height="54.31" rx="1.51" ry="1.51"/>
 <rect class="cls-3" x="95.43" y="7.17" width="19.46" height="54.31" rx="1.51" ry="1.51"/>
 <path class="cls-3" d="M43.41,2.55v2.23c0,1.98,1.61,3.59,3.59,3.59h15.44c1.98,0,3.59-1.61,3.59-3.59v-1.96l-22.63-.27Z"/>
 <path class="cls-3" d="M70.02,2.87h-.83s0,1.91,0,1.91c0,1.98,1.61,3.59,3.59,3.59h15.44c1.98,0,3.59-1.61,3.59-3.59V2.6l-21.8,.26Z"/>
 <path class="cls-3" d="M91.82,65.98v-2.23c0-1.98-1.61-3.59-3.59-3.59h-15.44c-1.98,0-3.59,1.61-3.59,3.59v1.96l22.63,.27Z"/>
 <path class="cls-3" d="M65.21,65.66h.83s0-1.91,0-1.91c0-1.98-1.61-3.59-3.59-3.59h-15.44c-1.98,0-3.59,1.61-3.59,3.59v2.17l21.8-.26Z"/>
 <rect class="cls-2" transform="translate(156.01 -120.43) rotate(90)" x="132.73" y="15.97" width="10.98" height="3.64" rx=".73" ry=".73"/>
 <rect class="cls-2" transform="translate(189.08 -87.36) rotate(90)" x="132.73" y="49.04" width="10.98" height="3.64" rx=".73" ry=".73"/>
 <rect class="cls-4" transform="translate(135.81 -93.84) rotate(90)" x="106.14" y="20.45" width="17.37" height="1.06" rx=".53" ry=".53"/>
 <rect class="cls-4" transform="translate(162.49 -67.16) rotate(90)" x="106.14" y="47.14" width="17.37" height="1.06" rx=".53" ry=".53"/>
 <rect class="cls-5" transform="translate(19.61 15.97) rotate(90)" x="-3.67" y="15.97" width="10.98" height="3.64" rx=".73" ry=".73"/>
 <rect class="cls-5" transform="translate(52.68 49.04) rotate(90)" x="-3.67" y="49.04" width="10.98" height="3.64" rx=".73" ry=".73"/>
</svg>
