<svg width="120" height="40" version="1.1" viewBox="0 0 31.75 10.583" xmlns="http://www.w3.org/2000/svg">
 <g transform="matrix(.26458 0 0 .26458 -30.041 -60.841)">
  <rect class="cls-9" x="113.54" y="229.95" width="119.85" height="39.99" rx="5.03" ry="5.03" fill="#f2b705"/>
  <g fill="#fff" stroke="#13303f" stroke-linecap="round" stroke-linejoin="round" stroke-width=".62px">
   <path class="cls-6" d="m138.37 257.67c-1.39 0.59-2.66 0.73-3.55 0.73-3.76 0-6.27-2.47-6.27-8.86 0-5.19 1.67-8.08 6.25-8.08 1.08 0 2.37 0.14 3.52 0.61l-0.42 3.24c-0.49-0.28-1.1-0.42-1.69-0.42-2.44 0-2.63 2.23-2.63 4.68 0 2.87 0.26 5.24 2.3 5.24 0.33 0 1.06-0.07 1.88-0.52z"/>
   <path class="cls-6" d="m144.86 251.25c0.05 2.21 0.07 4.82 0.28 7.03-1.03-0.14-1.41-0.17-2.98-0.17-0.66 0-1.29 0-2.14 0.12 0.12-2.21 0.17-4.14 0.17-6.13 0-3.17-0.12-6.23-0.38-10.5 1.25 0.07 2.66 0.07 3.69 0.07 0.89 0 3.22-0.09 4.18-0.09 3.29 0 4.77 1.1 4.77 4.23 0 2.63-1.03 4.3-2.49 4.94 0.96 1.76 3.2 5.19 4.93 7.52-0.73-0.02-2.19-0.02-3.29-0.02-1.25 0-1.83 0-2.51 0.09-1.17-2.19-2.63-4.7-4.23-7.07zm0.05-4.02c0 0.82 0 1.65 0.02 2.47 0 0 0.45 0.14 1.01 0.14 1.25 0 1.9-0.73 1.9-2.94 0-1.17-0.19-2.26-1.83-2.26-0.23 0-0.73 0.02-1.08 0.09-0.02 0.82-0.02 1.67-0.02 2.49z"/>
   <path class="cls-6" d="m160.46 254.68c2.73 0 4.63-0.07 5.76-0.33-0.14 1.27-0.26 2.56-0.33 3.83-1.48-0.12-2.7-0.14-4.63-0.14s-3.69 0-5.88 0.19c0.16-1.74 0.21-3.17 0.21-7.35 0-5.12-0.07-6.34-0.38-9.16 1.67 0.12 3.64 0.12 5.31 0.12 1.81 0 3.71-0.02 5.59-0.24-0.02 0.56-0.05 1.13-0.05 1.67 0 0.8 0.05 1.46 0.07 2.23-0.94-0.19-2.21-0.26-3.41-0.26-0.66 0-1.67 0-2.26 0.09v3.05c3.1 0 3.97-0.09 5.5-0.28-0.07 0.45-0.09 1.13-0.09 1.65 0 0.82 0 1.29 0.05 1.9-1.48-0.12-2.54-0.16-3.85-0.16-0.45 0-1.17 0-1.65 0.02l0.02 3.17z"/>
   <path class="cls-6" d="m168.43 250.52c0-3.41-0.09-5.83-0.42-8.91 0.89 0.07 1.83 0.09 2.33 0.09 1.36 0 3.43-0.19 5.45-0.19 3.64 0 6.13 0.61 6.13 7.73s-2.58 8.98-7 8.98c-1.25 0-2.21-0.14-4.02-0.14-0.73 0-1.6 0.02-2.66 0.09 0.12-2.35 0.19-4.72 0.19-7.66zm8.53-1.06c0-1.03-0.07-4.79-2.7-4.79-0.45 0-0.94 0.12-0.94 0.12s-0.07 3.83-0.07 5.38c0 1.29 0.05 4.77 0.05 4.77s0.35 0.19 1.01 0.19c1.74 0 2.66-1.29 2.66-5.66z"/>
   <path class="cls-6" d="m184 249.86c0-2.84-0.07-5.03-0.4-8.29 0.68 0.09 1.97 0.14 2.94 0.14 0.68 0 1.67-0.02 2.61-0.19-0.16 2.04-0.31 3.81-0.31 9.82 0 2.47 0.02 4.63 0.26 6.98-1.17-0.14-1.6-0.21-2.73-0.21-0.92 0-1.76 0.05-2.63 0.09 0.16-2.91 0.26-5.05 0.26-8.34z"/>
   <path class="cls-6" d="m195.16 249.23c0-1.74-0.02-2.56-0.16-4-1.53 0-3.03 0.02-4.63 0.26 0.07-0.73 0.14-1.81 0.14-2.68 0-0.49-0.02-0.92-0.07-1.2 2.49 0.14 4.79 0.21 7 0.21 2.56 0 6.2-0.09 7.59-0.21-0.02 0.38-0.02 0.71-0.02 1.08 0 0.96 0.05 1.83 0.12 2.8-1.43-0.26-3.08-0.26-4.63-0.26-0.14 1.17-0.16 2.66-0.16 4.49 0 2.63 0.05 5.64 0.24 8.55-1.17-0.12-1.83-0.12-2.66-0.12-1.25 0-1.9 0-3.1 0.09 0.31-3.24 0.35-6.56 0.35-9.02z"/>
   <path class="cls-6" d="m215.75 245.52c-0.61-0.17-1.83-0.47-2.94-0.47-1.46 0-1.81 0.54-1.81 1.1 0 2.28 5.76 1.06 5.76 6.81 0 4.72-3.88 5.43-6.7 5.43-1.27 0-2.16-0.14-3.67-0.45 0-0.89 0.12-2.21 0.12-3.88 0.82 0.31 2.07 0.49 3.17 0.49 1.17 0 2.09-0.21 2.09-1.17 0-2.44-5.92-1.43-5.92-7.14 0-3.92 2.77-4.77 6.32-4.77 1.76 0 2.91 0.21 3.81 0.4l-0.23 3.64z"/>
  </g>
 </g>
</svg>
