<svg version="1.1" viewBox="0 0 231.87 158.65" xmlns="http://www.w3.org/2000/svg">
 <defs>
  <style>.cls-1{fill:#00922c;}.cls-2{fill:#13303f;}.cls-3{fill:#023e73;}.cls-4{fill:#d8d8d8;}.cls-5{fill:#ceecf2;}.cls-6{fill:#ffdc83;}.cls-7{fill:none;stroke-width:1.55px;}.cls-7,.cls-8,.cls-9{stroke:#13303f;stroke-linecap:round;stroke-linejoin:round;}.cls-10{fill:#444;}.cls-11{fill:#f2b705;}.cls-12{fill:#f20505;}.cls-8{stroke-width:.33px;}.cls-8,.cls-9{fill:#fff;}.cls-9{stroke-width:.75px;}.cls-13{fill:#231f20;}</style>
 </defs>
 <line class="cls-7" x1="201.76" x2="213.19" y1="11.34" y2="22.77"/>
 <line class="cls-7" x1="201.76" x2="213.19" y1="22.77" y2="11.34"/>
 <rect class="cls-11" width="231.87" height="158.65" rx="4.33" ry="4.33"/>
 <rect class="cls-6" x="15.17" y="48.46" width="201.54" height="95.73" rx="4.67" ry="4.67"/>
 <path class="cls-2" d="M99.64,124.02v-5.69h1.86c.62,0,1.08,.13,1.39,.38s.47,.63,.47,1.13c0,.27-.08,.5-.23,.71s-.36,.36-.62,.47c.31,.09,.55,.25,.73,.49s.27,.53,.27,.86c0,.51-.17,.91-.5,1.2s-.8,.44-1.4,.44h-1.97Zm.75-3.26h1.13c.33,0,.59-.08,.79-.25,.2-.17,.29-.39,.29-.67,0-.31-.09-.54-.27-.68-.18-.14-.46-.21-.83-.21h-1.11v1.81Zm0,.6v2.05h1.24c.35,0,.62-.09,.83-.27s.3-.43,.3-.75c0-.68-.37-1.03-1.12-1.03h-1.25Z"/>
 <path class="cls-2" d="M106.41,124.09c-.57,0-1.04-.19-1.4-.56s-.54-.88-.54-1.51v-.13c0-.42,.08-.79,.24-1.12s.38-.59,.67-.77,.6-.28,.94-.28c.55,0,.98,.18,1.28,.54s.46,.88,.46,1.55v.3h-2.86c.01,.42,.13,.75,.37,1.01s.53,.38,.89,.38c.25,0,.47-.05,.65-.16s.33-.24,.46-.41l.44,.34c-.35,.54-.89,.82-1.59,.82Zm-.09-3.79c-.29,0-.54,.11-.73,.32s-.32,.51-.37,.89h2.12v-.05c-.02-.37-.12-.65-.3-.85s-.42-.3-.72-.3Z"/>
 <path class="cls-2" d="M110.81,124.09c-.57,0-1.04-.19-1.4-.56s-.54-.88-.54-1.51v-.13c0-.42,.08-.79,.24-1.12s.38-.59,.67-.77,.6-.28,.94-.28c.55,0,.98,.18,1.28,.54s.46,.88,.46,1.55v.3h-2.86c.01,.42,.13,.75,.37,1.01s.53,.38,.89,.38c.25,0,.47-.05,.65-.16s.33-.24,.46-.41l.44,.34c-.35,.54-.89,.82-1.59,.82Zm-.09-3.79c-.29,0-.54,.11-.73,.32s-.32,.51-.37,.89h2.12v-.05c-.02-.37-.12-.65-.3-.85s-.42-.3-.72-.3Z"/>
 <path class="cls-2" d="M117.04,121.95c0,.64-.15,1.16-.44,1.55s-.69,.59-1.2,.59-.92-.16-1.21-.49v2.04h-.72v-5.85h.66l.04,.47c.29-.36,.7-.55,1.23-.55s.91,.19,1.21,.57,.44,.92,.44,1.6v.07Zm-.72-.08c0-.48-.1-.85-.3-1.13s-.48-.41-.84-.41c-.44,0-.77,.19-.98,.58v2.02c.22,.39,.55,.58,.99,.58,.35,0,.62-.14,.83-.41s.31-.68,.31-1.22Z"/>
 <path class="cls-2" d="M118.23,124.02v-5.69h1.86c.62,0,1.08,.13,1.39,.38s.47,.63,.47,1.13c0,.27-.08,.5-.23,.71s-.36,.36-.62,.47c.31,.09,.55,.25,.73,.49s.27,.53,.27,.86c0,.51-.17,.91-.5,1.2s-.8,.44-1.4,.44h-1.97Zm.75-3.26h1.13c.33,0,.59-.08,.79-.25,.2-.17,.29-.39,.29-.67,0-.31-.09-.54-.27-.68-.18-.14-.46-.21-.83-.21h-1.11v1.81Zm0,.6v2.05h1.24c.35,0,.62-.09,.83-.27s.3-.43,.3-.75c0-.68-.37-1.03-1.12-1.03h-1.25Z"/>
 <path class="cls-2" d="M123.05,121.86c0-.41,.08-.79,.24-1.12s.39-.59,.68-.77,.62-.27,.99-.27c.58,0,1.04,.2,1.4,.6s.53,.93,.53,1.59v.05c0,.41-.08,.78-.24,1.11s-.38,.58-.68,.76-.63,.27-1.01,.27c-.57,0-1.04-.2-1.39-.6s-.53-.93-.53-1.58v-.05Zm.73,.09c0,.47,.11,.84,.33,1.13s.51,.43,.87,.43,.66-.14,.88-.43,.32-.69,.32-1.21c0-.46-.11-.84-.33-1.13s-.51-.43-.88-.43-.64,.14-.86,.43-.33,.69-.33,1.22Z"/>
 <path class="cls-2" d="M129.2,121.33l.94-1.54h.84l-1.38,2.09,1.43,2.14h-.84l-.98-1.58-.98,1.58h-.84l1.43-2.14-1.38-2.09h.84l.93,1.54Z"/>
 <path class="cls-2" d="M36.31,87.69c-.64-.19-1.11-.41-1.4-.68s-.44-.6-.44-1c0-.45,.18-.82,.54-1.11s.82-.44,1.4-.44c.39,0,.74,.07,1.04,.23,.31,.15,.54,.36,.71,.62s.25,.55,.25,.87h-.75c0-.35-.11-.62-.33-.81s-.53-.29-.93-.29c-.37,0-.66,.08-.87,.24-.21,.16-.31,.39-.31,.68,0,.23,.1,.43,.29,.59s.53,.31,1,.44c.47,.13,.84,.28,1.11,.44s.46,.35,.59,.56c.13,.21,.19,.46,.19,.75,0,.46-.18,.83-.54,1.11s-.84,.42-1.44,.42c-.39,0-.75-.08-1.09-.22-.34-.15-.6-.36-.78-.62-.18-.26-.28-.56-.28-.89h.75c0,.34,.13,.62,.38,.81s.59,.3,1.02,.3c.4,0,.7-.08,.91-.24,.21-.16,.32-.38,.32-.66s-.1-.49-.29-.65-.55-.3-1.06-.45Z"/>
 <path class="cls-2" d="M40.22,86.51c.32-.39,.74-.59,1.25-.59,.89,0,1.34,.5,1.35,1.51v2.79h-.72v-2.8c0-.3-.07-.53-.21-.68-.14-.15-.35-.22-.64-.22-.23,0-.44,.06-.62,.19s-.32,.29-.41,.49v3.01h-.72v-6h.72v2.29Z"/>
 <path class="cls-2" d="M45.79,90.3c-.57,0-1.04-.19-1.4-.56-.36-.38-.54-.88-.54-1.51v-.13c0-.42,.08-.79,.24-1.12,.16-.33,.38-.59,.67-.77,.29-.19,.6-.28,.94-.28,.55,0,.98,.18,1.28,.54,.3,.36,.46,.88,.46,1.55v.3h-2.86c.01,.42,.13,.75,.37,1.01,.23,.26,.53,.38,.89,.38,.25,0,.47-.05,.65-.16,.18-.11,.33-.24,.46-.41l.44,.34c-.35,.54-.89,.82-1.59,.82Zm-.09-3.79c-.29,0-.54,.11-.73,.32-.2,.21-.32,.51-.37,.89h2.12v-.05c-.02-.37-.12-.65-.3-.85-.18-.2-.42-.3-.72-.3Z"/>
 <path class="cls-2" d="M49.21,90.22h-.72v-6h.72v6Z"/>
 <path class="cls-2" d="M50.3,88.08c0-.65,.15-1.17,.46-1.56s.71-.59,1.21-.59,.89,.17,1.18,.51v-2.2h.72v6h-.66l-.04-.45c-.29,.35-.69,.53-1.21,.53s-.89-.2-1.2-.6c-.31-.4-.46-.93-.46-1.57v-.05Zm.72,.08c0,.48,.1,.85,.3,1.12,.2,.27,.47,.41,.82,.41,.46,0,.79-.21,1-.62v-1.94c-.22-.4-.55-.6-1-.6-.35,0-.63,.14-.83,.41s-.3,.68-.3,1.21Z"/>
 <path class="cls-2" d="M54.92,88.07c0-.41,.08-.79,.24-1.12,.16-.33,.39-.59,.68-.77s.62-.27,.99-.27c.58,0,1.04,.2,1.4,.6s.53,.93,.53,1.59v.05c0,.41-.08,.78-.24,1.11-.16,.33-.38,.58-.68,.76-.29,.18-.63,.27-1.01,.27-.57,0-1.04-.2-1.39-.6s-.53-.93-.53-1.58v-.05Zm.73,.09c0,.47,.11,.84,.33,1.13,.22,.28,.51,.43,.87,.43s.66-.14,.88-.43c.22-.29,.32-.69,.32-1.21,0-.46-.11-.84-.33-1.13-.22-.29-.51-.43-.88-.43s-.64,.14-.86,.43c-.22,.28-.33,.69-.33,1.22Z"/>
 <path class="cls-2" d="M60.48,86l.02,.53c.32-.41,.75-.61,1.27-.61,.89,0,1.34,.5,1.35,1.51v2.79h-.72v-2.8c0-.3-.07-.53-.21-.68-.14-.15-.35-.22-.64-.22-.23,0-.44,.06-.62,.19s-.32,.29-.41,.49v3.01h-.72v-4.23h.68Z"/>
 <path class="cls-2" d="M70.22,85.15h-1.83v5.07h-.75v-5.07h-1.82v-.61h4.4v.61Z"/>
 <path class="cls-2" d="M70.25,88.07c0-.41,.08-.79,.24-1.12,.16-.33,.39-.59,.68-.77s.62-.27,.99-.27c.58,0,1.04,.2,1.4,.6s.53,.93,.53,1.59v.05c0,.41-.08,.78-.24,1.11-.16,.33-.38,.58-.68,.76-.29,.18-.63,.27-1.01,.27-.57,0-1.04-.2-1.39-.6s-.53-.93-.53-1.58v-.05Zm.73,.09c0,.47,.11,.84,.33,1.13,.22,.28,.51,.43,.87,.43s.66-.14,.88-.43c.22-.29,.32-.69,.32-1.21,0-.46-.11-.84-.33-1.13-.22-.29-.51-.43-.88-.43s-.64,.14-.86,.43c-.22,.28-.33,.69-.33,1.22Z"/>
 <path class="cls-2" d="M78.77,89.23l.81-3.23h.72l-1.23,4.23h-.59l-1.03-3.2-1,3.2h-.59l-1.23-4.23h.72l.83,3.16,.98-3.16h.58l1,3.23Z"/>
 <path class="cls-2" d="M82.81,90.3c-.57,0-1.04-.19-1.4-.56-.36-.38-.54-.88-.54-1.51v-.13c0-.42,.08-.79,.24-1.12,.16-.33,.38-.59,.67-.77,.29-.19,.6-.28,.94-.28,.55,0,.98,.18,1.28,.54,.3,.36,.46,.88,.46,1.55v.3h-2.86c.01,.42,.13,.75,.37,1.01,.23,.26,.53,.38,.89,.38,.25,0,.47-.05,.65-.16,.18-.11,.33-.24,.46-.41l.44,.34c-.35,.54-.89,.82-1.59,.82Zm-.09-3.79c-.29,0-.54,.11-.73,.32-.2,.21-.32,.51-.37,.89h2.12v-.05c-.02-.37-.12-.65-.3-.85-.18-.2-.42-.3-.72-.3Z"/>
 <path class="cls-2" d="M87.51,86.65c-.11-.02-.23-.03-.36-.03-.47,0-.8,.2-.96,.61v3h-.72v-4.23h.7v.49c.25-.38,.58-.57,1.02-.57,.14,0,.25,.02,.32,.05v.67Z"/>
 <path class="cls-2" d="M150.86,88.42c-.07,.6-.29,1.06-.67,1.39-.37,.33-.87,.49-1.49,.49-.67,0-1.21-.24-1.62-.72-.41-.48-.61-1.13-.61-1.93v-.55c0-.53,.09-.99,.28-1.39,.19-.4,.46-.71,.8-.92s.75-.32,1.2-.32c.6,0,1.09,.17,1.45,.51,.36,.34,.58,.8,.64,1.4h-.75c-.07-.46-.21-.78-.42-.99-.22-.2-.52-.3-.91-.3-.48,0-.85,.18-1.13,.53-.27,.36-.41,.86-.41,1.51v.55c0,.62,.13,1.11,.39,1.47,.26,.36,.62,.55,1.08,.55,.42,0,.74-.1,.96-.28,.22-.19,.37-.52,.44-.99h.75Z"/>
 <path class="cls-2" d="M154.51,90.22c-.04-.08-.08-.23-.1-.45-.34,.35-.74,.52-1.2,.52-.42,0-.76-.12-1.03-.35-.27-.24-.4-.54-.4-.9,0-.44,.17-.78,.5-1.03,.33-.24,.81-.37,1.41-.37h.7v-.33c0-.25-.08-.46-.23-.6-.15-.15-.37-.22-.67-.22-.26,0-.47,.06-.65,.2-.17,.13-.26,.29-.26,.47h-.73c0-.21,.08-.42,.22-.61,.15-.2,.35-.35,.61-.47,.26-.12,.54-.17,.85-.17,.49,0,.87,.12,1.14,.37,.28,.24,.42,.58,.43,1.01v1.95c0,.39,.05,.7,.15,.93v.06h-.76Zm-1.2-.55c.23,0,.44-.06,.64-.18s.35-.27,.44-.46v-.87h-.57c-.89,0-1.33,.26-1.33,.78,0,.23,.08,.4,.23,.53,.15,.13,.34,.19,.58,.19Z"/>
 <path class="cls-2" d="M158.41,86.65c-.11-.02-.23-.03-.36-.03-.47,0-.8,.2-.96,.61v3h-.72v-4.23h.7v.49c.25-.38,.58-.57,1.02-.57,.14,0,.25,.02,.32,.05v.67Z"/>
 <path class="cls-2" d="M158.97,88.07c0-.41,.08-.79,.24-1.12,.16-.33,.39-.59,.68-.77s.62-.27,.99-.27c.58,0,1.04,.2,1.4,.6s.53,.93,.53,1.59v.05c0,.41-.08,.78-.24,1.11-.16,.33-.38,.58-.68,.76-.29,.18-.63,.27-1.01,.27-.57,0-1.04-.2-1.39-.6s-.53-.93-.53-1.58v-.05Zm.73,.09c0,.47,.11,.84,.33,1.13,.22,.28,.51,.43,.87,.43s.66-.14,.88-.43c.22-.29,.32-.69,.32-1.21,0-.46-.11-.84-.33-1.13-.22-.29-.51-.43-.88-.43s-.64,.14-.86,.43c-.22,.28-.33,.69-.33,1.22Z"/>
 <path class="cls-2" d="M164.62,90.22h-.72v-6h.72v6Z"/>
 <path class="cls-2" d="M171.78,85.15h-1.83v5.07h-.75v-5.07h-1.82v-.61h4.4v.61Z"/>
 <path class="cls-2" d="M171.81,88.07c0-.41,.08-.79,.24-1.12,.16-.33,.39-.59,.68-.77s.62-.27,.99-.27c.58,0,1.04,.2,1.4,.6s.53,.93,.53,1.59v.05c0,.41-.08,.78-.24,1.11-.16,.33-.38,.58-.68,.76-.29,.18-.63,.27-1.01,.27-.57,0-1.04-.2-1.39-.6s-.53-.93-.53-1.58v-.05Zm.73,.09c0,.47,.11,.84,.33,1.13,.22,.28,.51,.43,.87,.43s.66-.14,.88-.43c.22-.29,.32-.69,.32-1.21,0-.46-.11-.84-.33-1.13-.22-.29-.51-.43-.88-.43s-.64,.14-.86,.43c-.22,.28-.33,.69-.33,1.22Z"/>
 <path class="cls-2" d="M180.33,89.23l.81-3.23h.72l-1.23,4.23h-.59l-1.03-3.2-1,3.2h-.59l-1.23-4.23h.72l.83,3.16,.98-3.16h.58l1,3.23Z"/>
 <path class="cls-2" d="M184.37,90.3c-.57,0-1.04-.19-1.4-.56-.36-.38-.54-.88-.54-1.51v-.13c0-.42,.08-.79,.24-1.12,.16-.33,.38-.59,.67-.77,.29-.19,.6-.28,.94-.28,.55,0,.98,.18,1.28,.54,.3,.36,.46,.88,.46,1.55v.3h-2.86c.01,.42,.13,.75,.37,1.01,.23,.26,.53,.38,.89,.38,.25,0,.47-.05,.65-.16,.18-.11,.33-.24,.46-.41l.44,.34c-.35,.54-.89,.82-1.59,.82Zm-.09-3.79c-.29,0-.54,.11-.73,.32-.2,.21-.32,.51-.37,.89h2.12v-.05c-.02-.37-.12-.65-.3-.85-.18-.2-.42-.3-.72-.3Z"/>
 <path class="cls-2" d="M189.07,86.65c-.11-.02-.23-.03-.36-.03-.47,0-.8,.2-.96,.61v3h-.72v-4.23h.7v.49c.25-.38,.58-.57,1.02-.57,.14,0,.25,.02,.32,.05v.67Z"/>
 <rect class="cls-13" x="95.6" y="73.03" width="2.91" height="2.91" rx="1.45" ry="1.45"/>
 <rect class="cls-13" x="95.6" y="85.82" width="2.91" height="2.91" rx="1.45" ry="1.45"/>
 <rect class="cls-13" x="104.59" y="73.03" width="2.91" height="2.91" rx="1.45" ry="1.45"/>
 <rect class="cls-13" x="104.59" y="85.82" width="2.91" height="2.91" rx="1.45" ry="1.45"/>
 <path class="cls-3" d="M105.45,92.76h-7.77c-.94,0-1.71-.76-1.71-1.71l.13-10.46-.13-10.46c0-.94,.76-1.71,1.71-1.71h7.77c.94,0,1.71,.76,1.71,1.71l-.17,10.46,.17,10.46c0,.94-.76,1.71-1.71,1.71Z"/>
 <rect class="cls-5" transform="translate(14.29 188.83) rotate(-90)" x="99.95" y="82.55" width="3.22" height="9.44" rx="1.51" ry="1.51"/>
 <rect class="cls-5" transform="translate(27.08 176.04) rotate(-90)" x="99.87" y="69.76" width="3.38" height="9.44" rx="1.51" ry="1.51"/>
 <path class="cls-5" d="M96.04,85.21h.39c.34,0,.62-.28,.62-.62v-2.68c0-.34-.28-.62-.62-.62h-.34l-.05,3.93Z"/>
 <path class="cls-5" d="M96.09,80.59v.14s.33,0,.33,0c.34,0,.62-.28,.62-.62v-2.68c0-.34-.28-.62-.62-.62h-.38l.05,3.79Z"/>
 <path class="cls-5" d="M107.06,76.8h-.39c-.34,0-.62,.28-.62,.62v2.68c0,.34,.28,.62,.62,.62h.34l.05-3.93Z"/>
 <path class="cls-5" d="M107,81.42v-.14s-.33,0-.33,0c-.34,0-.62,.28-.62,.62v2.68c0,.34,.28,.62,.62,.62h.38l-.05-3.79Z"/>
 <rect class="cls-4" x="97.73" y="68.42" width="1.91" height=".63" rx=".32" ry=".32"/>
 <rect class="cls-4" x="103.48" y="68.42" width="1.91" height=".63" rx=".32" ry=".32"/>
 <rect class="cls-10" x="97.73" y="72.71" width="3.02" height=".18" rx=".09" ry=".09"/>
 <rect class="cls-10" x="102.37" y="72.71" width="3.02" height=".18" rx=".09" ry=".09"/>
 <rect class="cls-12" x="97.73" y="92.12" width="1.91" height=".63" rx=".32" ry=".32"/>
 <rect class="cls-12" x="103.48" y="92.12" width="1.91" height=".63" rx=".32" ry=".32"/>
 <rect class="cls-13" x="127.48" y="73.03" width="2.91" height="2.91" rx="1.45" ry="1.45"/>
 <rect class="cls-13" x="127.48" y="85.82" width="2.91" height="2.91" rx="1.45" ry="1.45"/>
 <rect class="cls-13" x="136.47" y="73.03" width="2.91" height="2.91" rx="1.45" ry="1.45"/>
 <rect class="cls-13" x="136.48" y="85.82" width="2.91" height="2.91" rx="1.45" ry="1.45"/>
 <path class="cls-1" d="M137.33,92.76h-7.77c-.94,0-1.71-.76-1.71-1.71l.13-10.46-.13-10.46c0-.94,.76-1.71,1.71-1.71h7.77c.94,0,1.71,.76,1.71,1.71l-.17,10.46,.17,10.46c0,.94-.76,1.71-1.71,1.71Z"/>
 <rect class="cls-5" transform="translate(46.17 220.71) rotate(-90)" x="131.83" y="82.55" width="3.22" height="9.44" rx="1.51" ry="1.51"/>
 <rect class="cls-5" transform="translate(58.96 207.92) rotate(-90)" x="131.75" y="69.76" width="3.38" height="9.44" rx="1.51" ry="1.51"/>
 <path class="cls-5" d="M127.92,85.21h.39c.34,0,.62-.28,.62-.62v-2.68c0-.34-.28-.62-.62-.62h-.34l-.05,3.93Z"/>
 <path class="cls-5" d="M127.98,80.59v.14s.33,0,.33,0c.34,0,.62-.28,.62-.62v-2.68c0-.34-.28-.62-.62-.62h-.38l.05,3.79Z"/>
 <path class="cls-5" d="M138.94,76.8h-.39c-.34,0-.62,.28-.62,.62v2.68c0,.34,.28,.62,.62,.62h.34l.05-3.93Z"/>
 <path class="cls-5" d="M138.89,81.42v-.14s-.33,0-.33,0c-.34,0-.62,.28-.62,.62v2.68c0,.34,.28,.62,.62,.62h.38l-.05-3.79Z"/>
 <rect class="cls-4" x="129.61" y="68.42" width="1.91" height=".63" rx=".32" ry=".32"/>
 <rect class="cls-4" x="135.36" y="68.42" width="1.91" height=".63" rx=".32" ry=".32"/>
 <rect class="cls-10" x="129.61" y="72.71" width="3.02" height=".18" rx=".09" ry=".09"/>
 <rect class="cls-10" x="134.25" y="72.71" width="3.02" height=".18" rx=".09" ry=".09"/>
 <rect class="cls-12" x="129.61" y="92.12" width="1.91" height=".63" rx=".32" ry=".32"/>
 <rect class="cls-12" x="135.36" y="92.12" width="1.91" height=".63" rx=".32" ry=".32"/>
 <path class="cls-8" d="M64.99,81c-.73,.31-1.41,.38-1.88,.38-1.99,0-3.32-1.31-3.32-4.69,0-2.75,.88-4.28,3.31-4.28,.57,0,1.26,.07,1.87,.32l-.22,1.72c-.26-.15-.58-.22-.9-.22-1.29,0-1.39,1.18-1.39,2.47,0,1.52,.14,2.77,1.22,2.77,.17,0,.56-.04,1-.27l.32,1.79Z"/>
 <path class="cls-8" d="M65.51,76.73c0-3.12,.97-4.32,3.76-4.32s3.56,1.19,3.56,4.17c0,3.29-.96,4.8-3.71,4.8-2.34,0-3.61-1.08-3.61-4.65Zm4.68,.24c0-2.18-.26-2.9-1.02-2.9-.83,0-.93,.86-.93,2.45,0,2.1,.17,3.13,1.03,3.13,.71,0,.92-.72,.92-2.69Z"/>
 <path class="cls-8" d="M73.93,77.21c0-1.8-.05-3.08-.22-4.71,.47,.04,.97,.05,1.23,.05,.72,0,1.82-.1,2.88-.1,1.93,0,3.25,.32,3.25,4.09s-1.37,4.75-3.71,4.75c-.66,0-1.17-.07-2.13-.07-.39,0-.85,.01-1.41,.05,.06-1.24,.1-2.5,.1-4.05Zm4.51-.56c0-.55-.04-2.54-1.43-2.54-.24,0-.5,.06-.5,.06,0,0-.04,2.03-.04,2.85,0,.68,.03,2.52,.03,2.52,0,0,.19,.1,.53,.1,.92,0,1.41-.68,1.41-3Z"/>
 <path class="cls-8" d="M84.72,79.42c1.44,0,2.45-.04,3.05-.17-.07,.67-.14,1.36-.17,2.03-.78-.06-1.43-.08-2.45-.08s-1.95,0-3.11,.1c.09-.92,.11-1.68,.11-3.89,0-2.71-.04-3.36-.2-4.85,.88,.06,1.93,.06,2.81,.06,.96,0,1.96-.01,2.96-.12-.01,.3-.02,.6-.02,.88,0,.42,.02,.77,.04,1.18-.5-.1-1.17-.14-1.8-.14-.35,0-.88,0-1.19,.05v1.62c1.64,0,2.1-.05,2.91-.15-.04,.24-.05,.6-.05,.87,0,.44,0,.68,.02,1.01-.78-.06-1.34-.09-2.04-.09-.24,0-.62,0-.87,.01v1.68Z"/>
 <path class="cls-8" d="M103.54,112.07c-.24-.04-.51-.05-.76-.05s-.45,.01-.65,.04c-.6-1.67-1.26-3.53-1.88-5.17-.01,.83-.05,1.85-.05,2.67,0,.88-.02,1.73-.04,2.54-.39-.05-.66-.09-1.21-.09-.31,0-.61,.01-1.02,.05,.29-2.97,.53-5.89,.71-8.83,.56,.05,1.06,.07,1.64,.07,.42,0,.87-.01,1.32-.07,.49,1.74,1.03,3.64,1.58,5.17,.62-1.67,1.16-3.56,1.48-5.1,.4,.04,.73,.05,1.08,.05,.68,0,1.28-.05,1.9-.11-.01,.68-.02,1.38-.02,2.01,0,2.38,.17,4.61,.42,6.83-.49-.04-.86-.06-1.42-.06-.39,0-.77,.01-1.24,.05-.02-1.6-.09-3.26-.24-5.15l-1.62,5.15Z"/>
 <path class="cls-8" d="M116.19,109.4c0,1.5-.67,2.79-3.58,2.79-2.29,0-3.54-.8-3.54-2.9,0-1.22,.01-1.87,.01-2.92s-.01-2.03-.14-3.04c.31,.03,.93,.06,1.53,.06,.48,0,1.09-.02,1.55-.07-.21,1.34-.26,3.16-.26,4.6s.01,1.93,.17,2.28c.14,.29,.3,.42,.81,.42,.42,0,.62-.1,.76-.32,.2-.31,.2-.7,.2-2.29,0-2.55-.12-3.88-.27-4.69,.49,.04,.96,.06,1.6,.06,.45,0,.87-.01,1.24-.04-.08,.66-.09,1.28-.09,2.21v3.84Z"/>
 <path class="cls-8" d="M122.33,105.37c-.32-.09-.97-.25-1.55-.25-.77,0-.96,.29-.96,.58,0,1.21,3.05,.56,3.05,3.61,0,2.5-2.05,2.87-3.54,2.87-.67,0-1.14-.07-1.94-.24,0-.47,.06-1.17,.06-2.05,.44,.16,1.09,.26,1.68,.26,.62,0,1.11-.11,1.11-.62,0-1.29-3.13-.76-3.13-3.78,0-2.08,1.47-2.52,3.34-2.52,.93,0,1.54,.11,2.01,.21l-.12,1.93Z"/>
 <path class="cls-8" d="M123.84,107.67c0-1.5-.04-2.66-.21-4.39,.36,.05,1.04,.08,1.55,.08,.36,0,.88-.01,1.38-.1-.09,1.08-.16,2.01-.16,5.2,0,1.31,.01,2.45,.14,3.69-.62-.07-.85-.11-1.44-.11-.49,0-.93,.03-1.39,.05,.09-1.54,.14-2.67,.14-4.41Z"/>
 <path class="cls-8" d="M132.68,111.8c-.73,.31-1.41,.38-1.88,.38-1.99,0-3.32-1.31-3.32-4.69,0-2.75,.88-4.28,3.31-4.28,.57,0,1.26,.07,1.87,.32l-.22,1.72c-.26-.15-.58-.22-.9-.22-1.29,0-1.39,1.18-1.39,2.47,0,1.52,.14,2.77,1.22,2.77,.17,0,.56-.04,1-.27l.32,1.79Z"/>
 <path class="cls-8" d="M148.09,78.24c0-.57-.02-1.02-.05-1.45,.46,.04,.87,.04,1.21,.04,.6,0,.81-.01,1.22-.08-.05,.63-.06,1.36-.06,2.15,0,.66,0,1.53,.05,2.01-.61,.27-1.89,.47-2.85,.47-2.49,0-3.77-1.37-3.77-4.5,0-2.54,.85-4.46,4.05-4.46,1.26,0,2.46,.3,2.59,.34l-.09,2.03c-.66-.32-1.38-.48-2.04-.48-1.63,0-1.93,.99-1.93,2.57,0,2.13,.55,2.61,1.18,2.61,.29,0,.48-.07,.48-.07v-1.17Z"/>
 <path class="cls-8" d="M154.16,77.6c.02,1.17,.04,2.55,.15,3.72-.55-.08-.75-.09-1.58-.09-.35,0-.68,0-1.13,.06,.06-1.17,.09-2.19,.09-3.25,0-1.68-.06-3.29-.2-5.56,.66,.04,1.41,.04,1.95,.04,.47,0,1.7-.05,2.21-.05,1.74,0,2.52,.58,2.52,2.24,0,1.39-.55,2.28-1.32,2.61,.51,.93,1.69,2.75,2.61,3.98-.38-.01-1.16-.01-1.74-.01-.66,0-.97,0-1.33,.05-.62-1.16-1.39-2.49-2.24-3.74Zm.02-2.13c0,.44,0,.87,.01,1.31,0,0,.24,.07,.54,.07,.66,0,1.01-.39,1.01-1.55,0-.62-.1-1.19-.97-1.19-.12,0-.39,.01-.57,.05-.01,.43-.01,.88-.01,1.32Z"/>
 <path class="cls-8" d="M164.25,79.07c-.4-.01-.93-.01-1.17-.01-.25,0-.8,.01-1.17,.02-.17,.83-.31,1.64-.4,2.21-.39-.05-.95-.06-1.27-.06-.54,0-.72,0-1.21,.06,.78-2.5,1.67-5.19,2.69-8.78,.46,.01,1.14,.01,1.54,.01,.65,0,.9-.02,1.73-.05,.75,3.1,2.16,7.5,2.6,8.82-.51-.04-.72-.04-1.44-.04-.33,0-1.03,.02-1.28,.05l-.62-2.24Zm-1.26-4.34c-.09,.35-.39,1.43-.68,2.65,.22,.01,.46,.01,.7,.01,.25,0,.51,0,.76-.01-.33-1.21-.66-2.29-.77-2.65Z"/>
 <path class="cls-8" d="M170.75,81.31c-.6-.08-1.01-.09-1.38-.09-.52,0-.85,.02-1.31,.07,.1-1.28,.15-2.49,.15-4.05,0-1.36-.04-3.08-.16-4.76,.63,.06,1.21,.06,1.74,.06,.8,0,1.84-.07,2.39-.07,1.63,0,2.39,.67,2.39,2.56,0,2.2-1.03,3.48-3.11,3.48-.35,0-.61-.04-.82-.1,.01,1.01,.05,2.28,.11,2.9Zm.31-4.29c.57,0,1.09-.31,1.09-1.62,0-.83-.21-1.31-.98-1.31-.12,0-.26,.01-.52,.05-.01,.42-.01,.78-.01,1.13,0,.56,0,1.11,.01,1.68,.12,.04,.25,.06,.41,.06Z"/>
 <path class="cls-8" d="M180.14,79.7v-2.08c-.39-.04-.72-.05-1.11-.05-.32,0-.61,0-.92,.04,0,.92,.03,2.52,.15,3.66-.5-.05-1.01-.06-1.47-.06-.51,0-.98,0-1.39,.07,.1-1.36,.15-3.06,.15-4.25,0-2.16-.16-3.39-.35-4.53,.44,.04,1.21,.04,1.6,.04,.37,0,1.02-.02,1.44-.07-.1,1.19-.14,2.47-.14,3.34,.21,.01,.65,.03,.98,.03s.77-.01,1.04-.04c0-1.11-.09-2.2-.2-3.31,.42,.05,1.22,.05,1.58,.05,.41,0,.81-.04,1.36-.07-.14,1.33-.17,2.62-.17,4.76,0,1.24,.01,2.46,.15,4.03-.42-.04-.81-.06-1.27-.06s-1.02,.03-1.52,.06c.03-.22,.08-.75,.08-1.55Z"/>
 <path class="cls-8" d="M184.13,76.87c0-1.5-.04-2.66-.21-4.39,.36,.05,1.04,.08,1.55,.08,.36,0,.88-.01,1.38-.1-.09,1.08-.16,2.01-.16,5.2,0,1.31,.01,2.45,.14,3.69-.62-.07-.85-.11-1.44-.11-.49,0-.93,.03-1.39,.05,.09-1.54,.14-2.67,.14-4.41Z"/>
 <path class="cls-8" d="M192.97,81c-.73,.31-1.41,.38-1.88,.38-1.99,0-3.32-1.31-3.32-4.69,0-2.75,.88-4.28,3.31-4.28,.57,0,1.26,.07,1.87,.32l-.22,1.72c-.26-.15-.58-.22-.9-.22-1.29,0-1.39,1.18-1.39,2.47,0,1.52,.14,2.77,1.22,2.77,.17,0,.56-.04,1-.27l.32,1.79Z"/>
 <path class="cls-8" d="M198.73,74.57c-.32-.09-.97-.25-1.55-.25-.77,0-.96,.29-.96,.58,0,1.21,3.05,.56,3.05,3.61,0,2.5-2.05,2.87-3.54,2.87-.67,0-1.14-.07-1.94-.24,0-.47,.06-1.17,.06-2.05,.44,.16,1.09,.26,1.68,.26,.62,0,1.11-.11,1.11-.62,0-1.29-3.13-.76-3.13-3.78,0-2.08,1.47-2.52,3.34-2.52,.93,0,1.54,.11,2.01,.21l-.12,1.93Z"/>
 <path class="cls-9" d="M73.31,32.6c-1.66,.71-3.19,.87-4.26,.87-4.51,0-7.53-2.96-7.53-10.63,0-6.23,2-9.7,7.5-9.7,1.3,0,2.85,.17,4.23,.73l-.51,3.89c-.59-.34-1.33-.51-2.03-.51-2.93,0-3.16,2.68-3.16,5.61,0,3.44,.31,6.29,2.76,6.29,.39,0,1.27-.08,2.26-.62l.73,4.06Z"/>
 <path class="cls-9" d="M81.1,24.9c.06,2.65,.08,5.78,.34,8.43-1.24-.17-1.69-.2-3.58-.2-.79,0-1.55,0-2.57,.14,.14-2.65,.2-4.96,.2-7.36,0-3.81-.14-7.47-.45-12.6,1.49,.08,3.19,.08,4.43,.08,1.07,0,3.86-.11,5.02-.11,3.95,0,5.72,1.33,5.72,5.08,0,3.16-1.24,5.16-2.99,5.92,1.16,2.12,3.83,6.23,5.92,9.02-.88-.03-2.62-.03-3.95-.03-1.49,0-2.2,0-3.02,.11-1.41-2.62-3.16-5.64-5.08-8.49Zm.06-4.82c0,.99,0,1.97,.03,2.96,0,0,.54,.17,1.21,.17,1.49,0,2.28-.87,2.28-3.53,0-1.41-.23-2.71-2.2-2.71-.28,0-.87,.03-1.3,.11-.03,.99-.03,2-.03,2.99Z"/>
 <path class="cls-9" d="M99.82,29.02c3.27,0,5.55-.08,6.91-.39-.17,1.52-.31,3.07-.39,4.6-1.78-.14-3.24-.17-5.55-.17s-4.43,0-7.05,.23c.2-2.09,.25-3.81,.25-8.83,0-6.15-.08-7.61-.45-11,2,.14,4.37,.14,6.37,.14,2.17,0,4.46-.03,6.71-.28-.03,.68-.06,1.35-.06,2,0,.96,.06,1.75,.08,2.68-1.13-.23-2.65-.31-4.09-.31-.79,0-2,0-2.71,.11v3.67c3.72,0,4.77-.11,6.6-.34-.08,.54-.11,1.35-.11,1.97,0,.99,0,1.55,.06,2.28-1.78-.14-3.04-.2-4.62-.2-.54,0-1.41,0-1.97,.03l.03,3.81Z"/>
 <path class="cls-9" d="M109.38,24.03c0-4.09-.11-6.99-.51-10.69,1.07,.08,2.2,.11,2.79,.11,1.63,0,4.12-.23,6.54-.23,4.37,0,7.36,.73,7.36,9.28s-3.1,10.77-8.4,10.77c-1.49,0-2.65-.17-4.82-.17-.88,0-1.92,.03-3.19,.11,.14-2.82,.23-5.67,.23-9.19Zm10.24-1.27c0-1.24-.08-5.75-3.24-5.75-.54,0-1.13,.14-1.13,.14,0,0-.08,4.6-.08,6.46,0,1.55,.06,5.72,.06,5.72,0,0,.42,.23,1.21,.23,2.09,0,3.19-1.55,3.19-6.8Z"/>
 <path class="cls-9" d="M128.08,23.24c0-3.41-.08-6.04-.48-9.95,.82,.11,2.37,.17,3.52,.17,.82,0,2-.03,3.13-.23-.2,2.45-.37,4.57-.37,11.79,0,2.96,.03,5.55,.31,8.38-1.41-.17-1.92-.25-3.27-.25-1.1,0-2.12,.06-3.16,.11,.2-3.5,.31-6.06,.31-10.01Z"/>
 <path class="cls-9" d="M141.47,22.48c0-2.09-.03-3.07-.2-4.79-1.83,0-3.64,.03-5.55,.31,.08-.87,.17-2.17,.17-3.21,0-.59-.03-1.1-.08-1.44,2.99,.17,5.75,.25,8.4,.25,3.07,0,7.44-.11,9.11-.25-.03,.45-.03,.85-.03,1.3,0,1.16,.06,2.2,.14,3.36-1.72-.31-3.69-.31-5.56-.31-.17,1.41-.2,3.19-.2,5.39,0,3.16,.06,6.77,.28,10.26-1.41-.14-2.2-.14-3.19-.14-1.5,0-2.28,0-3.72,.11,.37-3.89,.42-7.87,.42-10.83Z"/>
 <path class="cls-9" d="M166.18,18.02c-.73-.2-2.2-.56-3.52-.56-1.75,0-2.17,.65-2.17,1.33,0,2.74,6.91,1.27,6.91,8.18,0,5.67-4.65,6.51-8.04,6.51-1.52,0-2.59-.17-4.4-.54,0-1.07,.14-2.65,.14-4.65,.99,.37,2.48,.59,3.81,.59,1.41,0,2.51-.25,2.51-1.41,0-2.93-7.11-1.72-7.11-8.57,0-4.71,3.33-5.72,7.59-5.72,2.11,0,3.5,.25,4.57,.48l-.28,4.37Z"/>
</svg>
