<?xml version="1.0" encoding="UTF-8"?><svg id="Layer_2" xmlns="http://www.w3.org/2000/svg" viewBox="0 0 44.28 46.89"><defs><style>.cls-1{fill:#ddd;}.cls-2{fill:#85bff2;}.cls-3{fill:#f2b705;}.cls-4{fill:#00571d;}.cls-5{fill:#ff5d4a;}.cls-6{fill:#1c388c;}</style></defs><g id="Layer_1-2"><g><g><path class="cls-5" d="M8.37,20.89c-.82-.35-1.36,.17-1.76,1.07-.13-.99-.52-1.64-1.4-1.54-.83,.1-1.06,.74-1,1.63-.54-.61-1.11-.85-1.75-.39-.7,.51-.55,1.25,0,2.05-.9-.37-1.65-.35-1.99,.45s.17,1.36,1.07,1.76c-.99,.13-1.64,.52-1.54,1.4,.09,.78,.67,1.04,1.48,1.01-.69,.56-1,1.17-.51,1.85,.51,.7,1.25,.55,2.05,0-.37,.9-.35,1.65,.45,1.99s1.36-.17,1.76-1.07c.13,.99,.52,1.64,1.4,1.54,.9-.11,1.1-.86,.97-1.87,.61,.85,1.28,1.28,2.02,.73,.7-.51,.55-1.25,0-2.04,.9,.37,1.65,.35,1.99-.45s-.17-1.36-1.07-1.76c.99-.13,1.64-.52,1.54-1.4-.11-.91-.88-1.1-1.91-.97,.83-.6,1.24-1.26,.7-1.99-.51-.7-1.25-.55-2.05,0,.37-.9,.35-1.65-.45-1.99Z"/><path class="cls-3" d="M6.9,24.32c1.21,.52,1.79,.97,1.21,3.15-.32,1.19-1.96,2.14-3.16,1.2-1.03-.81-1.35-2.15-.86-3.28,.24-.55,1.6-1.6,2.81-1.08Z"/></g><g><path class="cls-6" d="M32.74,.48c-.82-.35-1.36,.17-1.76,1.07-.13-.99-.52-1.64-1.4-1.54-.83,.1-1.06,.74-1,1.63-.54-.61-1.11-.85-1.75-.39-.7,.51-.55,1.25,0,2.05-.9-.37-1.65-.35-1.99,.45s.17,1.36,1.07,1.76c-.99,.13-1.64,.52-1.54,1.4,.09,.78,.67,1.04,1.48,1.01-.69,.56-1,1.17-.51,1.85,.51,.7,1.25,.55,2.05,0-.37,.9-.35,1.65,.45,1.99s1.36-.17,1.76-1.07c.13,.99,.52,1.64,1.4,1.54,.9-.11,1.1-.86,.97-1.87,.61,.85,1.28,1.28,2.02,.73,.7-.51,.55-1.25,0-2.04,.9,.37,1.65,.35,1.99-.45s-.17-1.36-1.07-1.76c.99-.13,1.64-.52,1.54-1.4-.11-.91-.88-1.1-1.91-.97,.83-.6,1.24-1.26,.7-1.99-.51-.7-1.25-.55-2.05,0,.37-.9,.35-1.65-.45-1.99Z"/><path class="cls-3" d="M31.27,3.91c1.21,.52,1.79,.97,1.21,3.15-.32,1.19-1.96,2.14-3.16,1.2-1.03-.81-1.35-2.15-.86-3.28,.24-.55,1.6-1.6,2.81-1.08Z"/></g><g><path class="cls-2" d="M22.67,35.13c-.82-.35-1.36,.17-1.76,1.07-.13-.99-.52-1.64-1.4-1.54-.83,.1-1.06,.74-1,1.63-.54-.61-1.11-.85-1.75-.39-.7,.51-.55,1.25,0,2.05-.9-.37-1.65-.35-1.99,.45s.17,1.36,1.07,1.76c-.99,.13-1.64,.52-1.54,1.4,.09,.78,.67,1.04,1.48,1.01-.69,.56-1,1.17-.51,1.85,.51,.7,1.25,.55,2.05,0-.37,.9-.35,1.65,.45,1.99s1.36-.17,1.76-1.07c.13,.99,.52,1.64,1.4,1.54,.9-.11,1.1-.86,.97-1.87,.61,.85,1.28,1.28,2.02,.73,.7-.51,.55-1.25,0-2.04,.9,.37,1.65,.35,1.99-.45s-.17-1.36-1.07-1.76c.99-.13,1.64-.52,1.54-1.4-.11-.91-.88-1.1-1.91-.97,.83-.6,1.24-1.26,.7-1.99-.51-.7-1.25-.55-2.05,0,.37-.9,.35-1.65-.45-1.99Z"/><path class="cls-3" d="M21.2,38.56c1.21,.52,1.79,.97,1.21,3.15-.32,1.19-1.96,2.14-3.16,1.2-1.03-.81-1.35-2.15-.86-3.28,.24-.55,1.6-1.6,2.81-1.08Z"/></g><g><path class="cls-1" d="M14.28,4.47c-.82-.35-1.36,.17-1.76,1.07-.13-.99-.52-1.64-1.4-1.54-.83,.1-1.06,.74-1,1.63-.54-.61-1.11-.85-1.75-.39-.7,.51-.55,1.25,0,2.05-.9-.37-1.65-.35-1.99,.45s.17,1.36,1.07,1.76c-.99,.13-1.64,.52-1.54,1.4,.09,.78,.67,1.04,1.48,1.01-.69,.56-1,1.17-.51,1.85,.51,.7,1.25,.55,2.05,0-.37,.9-.35,1.65,.45,1.99s1.36-.17,1.76-1.07c.13,.99,.52,1.64,1.4,1.54,.9-.11,1.1-.86,.97-1.87,.61,.85,1.28,1.28,2.02,.73,.7-.51,.55-1.25,0-2.04,.9,.37,1.65,.35,1.99-.45s-.17-1.36-1.07-1.76c.99-.13,1.64-.52,1.54-1.4-.11-.91-.88-1.1-1.91-.97,.83-.6,1.24-1.26,.7-1.99-.51-.7-1.25-.55-2.05,0,.37-.9,.35-1.65-.45-1.99Z"/><path class="cls-3" d="M12.81,7.9c1.21,.52,1.79,.97,1.21,3.15-.32,1.19-1.96,2.14-3.16,1.2-1.03-.81-1.35-2.15-.86-3.28,.24-.55,1.6-1.6,2.81-1.08Z"/></g><g><path class="cls-5" d="M40.56,21.06c-.82-.35-1.36,.17-1.76,1.07-.13-.99-.52-1.64-1.4-1.54-.83,.1-1.06,.74-1,1.63-.54-.61-1.11-.85-1.75-.39-.7,.51-.55,1.25,0,2.05-.9-.37-1.65-.35-1.99,.45s.17,1.36,1.07,1.76c-.99,.13-1.64,.52-1.54,1.4,.09,.78,.67,1.04,1.48,1.01-.69,.56-1,1.17-.51,1.85,.51,.7,1.25,.55,2.05,0-.37,.9-.35,1.65,.45,1.99s1.36-.17,1.76-1.07c.13,.99,.52,1.64,1.4,1.54,.9-.11,1.1-.86,.97-1.87,.61,.85,1.28,1.28,2.02,.73,.7-.51,.55-1.25,0-2.04,.9,.37,1.65,.35,1.99-.45s-.17-1.36-1.07-1.76c.99-.13,1.64-.52,1.54-1.4-.11-.91-.88-1.1-1.91-.97,.83-.6,1.24-1.26,.7-1.99-.51-.7-1.25-.55-2.05,0,.37-.9,.35-1.65-.45-1.99Z"/><path class="cls-3" d="M39.09,24.49c1.21,.52,1.79,.97,1.21,3.15-.32,1.19-1.96,2.14-3.16,1.2-1.03-.81-1.35-2.15-.86-3.28,.24-.55,1.6-1.6,2.81-1.08Z"/></g><g><path class="cls-4" d="M23.58,17.77c-.82-.35-1.36,.17-1.76,1.07-.13-.99-.52-1.64-1.4-1.54-.83,.1-1.06,.74-1,1.63-.54-.61-1.11-.85-1.75-.39-.7,.51-.55,1.25,0,2.05-.9-.37-1.65-.35-1.99,.45s.17,1.36,1.07,1.76c-.99,.13-1.64,.52-1.54,1.4,.09,.78,.67,1.04,1.48,1.01-.69,.56-1,1.17-.51,1.85,.51,.7,1.25,.55,2.05,0-.37,.9-.35,1.65,.45,1.99s1.36-.17,1.76-1.07c.13,.99,.52,1.64,1.4,1.54,.9-.11,1.1-.86,.97-1.87,.61,.85,1.28,1.28,2.02,.73,.7-.51,.55-1.25,0-2.04,.9,.37,1.65,.35,1.99-.45s-.17-1.36-1.07-1.76c.99-.13,1.64-.52,1.54-1.4-.11-.91-.88-1.1-1.91-.97,.83-.6,1.24-1.26,.7-1.99-.51-.7-1.25-.55-2.05,0,.37-.9,.35-1.65-.45-1.99Z"/><path class="cls-3" d="M22.11,21.2c1.21,.52,1.79,.97,1.21,3.15-.32,1.19-1.96,2.14-3.16,1.2-1.03-.81-1.35-2.15-.86-3.28,.24-.55,1.6-1.6,2.81-1.08Z"/></g></g></g></svg>