<svg version="1.1" viewBox="0 0 274.15 185.01" xmlns="http://www.w3.org/2000/svg">
 <defs>
  <style>.cls-1{fill:#13303f;}.cls-2{fill:#ffdc83;}.cls-3{fill:none;stroke-miterlimit:10;}.cls-3,.cls-4,.cls-5{stroke:#13303f;}.cls-6{fill:#f2b705;}.cls-4{stroke-width:.69px;}.cls-4,.cls-5{fill:#fff;stroke-linecap:round;stroke-linejoin:round;}.cls-5{stroke-width:.44px;}</style>
 </defs>
 <rect class="cls-6" width="274.15" height="185.01" rx="4.33" ry="4.33"/>
 <path class="cls-4" d="M51.13,23.04c0-3.13-.08-5.54-.44-9.13,.75,.1,2.17,.16,3.23,.16,.75,0,1.84-.03,2.87-.21-.18,2.25-.34,4.19-.34,10.81,0,2.72,.03,5.1,.28,7.68-1.29-.16-1.76-.23-3-.23-1.01,0-1.94,.05-2.9,.1,.18-3.21,.28-5.56,.28-9.18Z"/>
 <path class="cls-4" d="M63.81,25.37c.03,2.66,.13,4.32,.41,6.96-.49-.1-1.11-.16-2.54-.16-1.01,0-1.4,.03-2.77,.13,.21-3.34,.34-6.13,.34-9.52,0-2.64-.08-5.43-.21-8.74,1.06,.08,2.09,.1,3.23,.1s1.97-.03,3.1-.13c1.37,3.05,3.34,6.93,4.66,9.13-.05-3.23-.18-5.54-.54-9.1,.62,.03,1.45,.03,1.94,.03,1.5,0,2.12-.05,3.41-.18-.29,3.52-.29,6.72-.29,10.19,0,2.72,0,5.48,.13,8.15-1.04-.13-1.89-.13-2.66-.13-1.09,0-2.07,.05-3.08,.13-1.66-3.13-3.34-6.16-5.15-9.29v2.43Z"/>
 <path class="cls-4" d="M87.36,18.25c-.67-.18-2.02-.52-3.23-.52-1.6,0-1.99,.59-1.99,1.21,0,2.51,6.34,1.16,6.34,7.5,0,5.2-4.27,5.97-7.37,5.97-1.4,0-2.38-.16-4.04-.49,0-.98,.13-2.43,.13-4.27,.91,.34,2.28,.54,3.49,.54,1.29,0,2.3-.23,2.3-1.29,0-2.69-6.52-1.58-6.52-7.86,0-4.32,3.05-5.25,6.96-5.25,1.94,0,3.21,.23,4.19,.44l-.26,4.01Z"/>
 <path class="cls-4" d="M94.31,22.34c0-1.91-.03-2.82-.18-4.4-1.68,0-3.34,.03-5.09,.28,.08-.8,.16-1.99,.16-2.95,0-.54-.03-1.01-.08-1.32,2.74,.16,5.28,.23,7.71,.23,2.82,0,6.83-.1,8.35-.23-.03,.41-.03,.78-.03,1.19,0,1.06,.05,2.02,.13,3.08-1.58-.28-3.39-.28-5.09-.28-.16,1.29-.18,2.92-.18,4.94,0,2.9,.05,6.21,.26,9.41-1.29-.13-2.02-.13-2.92-.13-1.37,0-2.09,0-3.41,.1,.34-3.57,.39-7.22,.39-9.93Z"/>
 <path class="cls-4" d="M112.12,24.57c.05,2.43,.08,5.3,.31,7.73-1.14-.16-1.55-.18-3.28-.18-.72,0-1.42,0-2.35,.13,.13-2.43,.18-4.55,.18-6.75,0-3.49-.13-6.85-.41-11.56,1.37,.08,2.92,.08,4.06,.08,.98,0,3.54-.1,4.6-.1,3.62,0,5.25,1.22,5.25,4.66,0,2.9-1.14,4.73-2.74,5.43,1.06,1.94,3.52,5.72,5.43,8.28-.8-.03-2.41-.03-3.62-.03-1.37,0-2.02,0-2.77,.1-1.29-2.41-2.9-5.17-4.66-7.78Zm.05-4.42c0,.91,0,1.81,.03,2.72,0,0,.49,.15,1.11,.15,1.37,0,2.09-.8,2.09-3.23,0-1.29-.21-2.48-2.02-2.48-.26,0-.8,.03-1.19,.1-.03,.91-.03,1.84-.03,2.74Z"/>
 <path class="cls-4" d="M137.99,26.63c0,3.13-1.4,5.79-7.45,5.79-4.76,0-7.37-1.66-7.37-6.03,0-2.54,.03-3.88,.03-6.08s-.03-4.22-.29-6.31c.65,.05,1.94,.13,3.18,.13,1.01,0,2.28-.05,3.23-.16-.44,2.79-.54,6.57-.54,9.57s.03,4.01,.36,4.73c.28,.59,.62,.88,1.68,.88,.88,0,1.29-.21,1.58-.67,.41-.65,.41-1.45,.41-4.76,0-5.3-.26-8.07-.57-9.75,1.01,.08,1.99,.13,3.34,.13,.93,0,1.81-.03,2.59-.08-.16,1.37-.18,2.66-.18,4.6v7.99Z"/>
 <path class="cls-4" d="M150.66,31.63c-1.53,.65-2.92,.8-3.91,.8-4.14,0-6.91-2.72-6.91-9.75,0-5.72,1.84-8.9,6.88-8.9,1.19,0,2.61,.15,3.88,.67l-.47,3.57c-.54-.31-1.21-.47-1.86-.47-2.69,0-2.9,2.46-2.9,5.15,0,3.16,.29,5.77,2.54,5.77,.36,0,1.16-.08,2.07-.57l.67,3.72Z"/>
 <path class="cls-4" d="M156.9,22.34c0-1.91-.03-2.82-.18-4.4-1.68,0-3.34,.03-5.09,.28,.08-.8,.16-1.99,.16-2.95,0-.54-.03-1.01-.08-1.32,2.74,.16,5.28,.23,7.71,.23,2.82,0,6.83-.1,8.35-.23-.03,.41-.03,.78-.03,1.19,0,1.06,.05,2.02,.13,3.08-1.58-.28-3.39-.28-5.09-.28-.16,1.29-.18,2.92-.18,4.94,0,2.9,.05,6.21,.26,9.41-1.29-.13-2.02-.13-2.92-.13-1.37,0-2.09,0-3.41,.1,.34-3.57,.39-7.22,.39-9.93Z"/>
 <path class="cls-4" d="M169.57,23.04c0-3.13-.08-5.54-.44-9.13,.75,.1,2.17,.16,3.23,.16,.75,0,1.84-.03,2.87-.21-.18,2.25-.34,4.19-.34,10.81,0,2.72,.03,5.1,.28,7.68-1.29-.16-1.76-.23-3-.23-1.01,0-1.94,.05-2.9,.1,.18-3.21,.28-5.56,.28-9.18Z"/>
 <path class="cls-4" d="M176.95,22.76c0-6.49,2.02-8.97,7.81-8.97s7.4,2.48,7.4,8.66c0,6.85-1.99,9.98-7.71,9.98-4.86,0-7.5-2.25-7.5-9.67Zm9.72,.49c0-4.53-.54-6.03-2.12-6.03-1.73,0-1.94,1.78-1.94,5.09,0,4.37,.36,6.52,2.15,6.52,1.47,0,1.91-1.5,1.91-5.59Z"/>
 <path class="cls-4" d="M198.8,25.37c.03,2.66,.13,4.32,.41,6.96-.49-.1-1.11-.16-2.54-.16-1.01,0-1.4,.03-2.77,.13,.21-3.34,.34-6.13,.34-9.52,0-2.64-.08-5.43-.21-8.74,1.06,.08,2.09,.1,3.23,.1s1.97-.03,3.1-.13c1.37,3.05,3.34,6.93,4.66,9.13-.05-3.23-.18-5.54-.54-9.1,.62,.03,1.45,.03,1.94,.03,1.5,0,2.12-.05,3.41-.18-.29,3.52-.29,6.72-.29,10.19,0,2.72,0,5.48,.13,8.15-1.04-.13-1.89-.13-2.66-.13-1.09,0-2.07,.05-3.08,.13-1.66-3.13-3.34-6.16-5.15-9.29v2.43Z"/>
 <path class="cls-4" d="M222.35,18.25c-.67-.18-2.02-.52-3.23-.52-1.6,0-1.99,.59-1.99,1.21,0,2.51,6.34,1.16,6.34,7.5,0,5.2-4.27,5.97-7.37,5.97-1.4,0-2.38-.16-4.04-.49,0-.98,.13-2.43,.13-4.27,.91,.34,2.28,.54,3.49,.54,1.29,0,2.3-.23,2.3-1.29,0-2.69-6.52-1.58-6.52-7.86,0-4.32,3.05-5.25,6.96-5.25,1.94,0,3.21,.23,4.19,.44l-.26,4.01Z"/>
 <rect class="cls-2" x="19.64" y="46.24" width="234.87" height="120.06" rx="4.67" ry="4.67"/>
 <path class="cls-1" d="M78.54,131.44v-4.98h1.4c.43,0,.82,.1,1.15,.29s.59,.46,.77,.82c.18,.35,.27,.76,.28,1.22v.32c0,.47-.09,.88-.27,1.23-.18,.35-.44,.62-.78,.81-.34,.19-.73,.29-1.17,.29h-1.38Zm.66-4.44v3.9h.69c.51,0,.9-.16,1.18-.47s.42-.76,.42-1.34v-.29c0-.57-.13-1.01-.4-1.32s-.64-.47-1.13-.48h-.77Z"/>
 <path class="cls-1" d="M84.71,131.51c-.5,0-.91-.17-1.22-.49s-.47-.77-.47-1.32v-.12c0-.37,.07-.69,.21-.98,.14-.29,.34-.51,.59-.68s.52-.24,.82-.24c.48,0,.85,.16,1.12,.48,.27,.32,.4,.77,.4,1.36v.26h-2.5c0,.36,.12,.66,.32,.88s.46,.34,.78,.34c.22,0,.41-.05,.57-.14,.15-.09,.29-.21,.41-.36l.39,.3c-.31,.48-.78,.71-1.39,.71Zm-.08-3.32c-.25,0-.47,.09-.64,.28s-.28,.45-.32,.78h1.85v-.05c-.02-.32-.1-.57-.26-.75s-.36-.26-.63-.26Z"/>
 <path class="cls-1" d="M89.17,130.46c0-.17-.06-.3-.19-.4s-.35-.18-.67-.24-.57-.15-.76-.25c-.19-.1-.33-.21-.42-.34-.09-.13-.13-.29-.13-.47,0-.3,.13-.56,.38-.77,.26-.21,.58-.31,.98-.31,.42,0,.76,.11,1.02,.33,.26,.22,.39,.49,.39,.83h-.64c0-.17-.07-.32-.22-.45-.15-.13-.33-.19-.56-.19s-.41,.05-.54,.15-.19,.23-.19,.39c0,.15,.06,.27,.18,.34s.34,.15,.65,.22c.32,.07,.57,.16,.77,.25,.2,.1,.34,.22,.44,.35s.14,.31,.14,.5c0,.33-.13,.6-.4,.79-.26,.2-.61,.3-1.03,.3-.3,0-.56-.05-.79-.16s-.41-.25-.54-.44c-.13-.19-.19-.39-.19-.61h.63c.01,.21,.1,.38,.25,.5s.37,.19,.63,.19c.24,0,.43-.05,.58-.15s.22-.23,.22-.39Z"/>
 <path class="cls-1" d="M91.8,129.73l-.4,.41v1.3h-.63v-5.25h.63v3.18l.34-.41,1.15-1.22h.77l-1.44,1.54,1.61,2.15h-.74l-1.29-1.71Z"/>
 <path class="cls-1" d="M95.51,126.85v.9h.69v.49h-.69v2.3c0,.15,.03,.26,.09,.33s.17,.11,.31,.11c.07,0,.17-.01,.3-.04v.51c-.17,.05-.33,.07-.49,.07-.28,0-.5-.09-.64-.26-.14-.17-.22-.41-.22-.73v-2.29h-.67v-.49h.67v-.9h.63Z"/>
 <path class="cls-1" d="M96.81,129.56c0-.36,.07-.69,.21-.98,.14-.29,.34-.51,.59-.67,.25-.16,.54-.24,.87-.24,.5,0,.91,.17,1.22,.52,.31,.35,.47,.81,.47,1.39v.04c0,.36-.07,.68-.21,.97s-.33,.51-.59,.67c-.26,.16-.55,.24-.88,.24-.5,0-.91-.17-1.22-.52-.31-.35-.47-.81-.47-1.38v-.04Zm.64,.07c0,.41,.09,.74,.29,.99s.44,.37,.76,.37,.58-.13,.77-.38,.28-.6,.28-1.06c0-.41-.1-.73-.29-.99s-.45-.38-.77-.38-.56,.12-.75,.37c-.19,.25-.29,.6-.29,1.07Z"/>
 <path class="cls-1" d="M104.24,129.63c0,.56-.13,1.02-.39,1.36-.26,.34-.61,.52-1.05,.52s-.8-.14-1.06-.43v1.78h-.63v-5.12h.58l.03,.41c.26-.32,.62-.48,1.07-.48s.8,.17,1.05,.5c.26,.33,.39,.8,.39,1.4v.06Zm-.63-.07c0-.42-.09-.75-.27-.99-.18-.24-.42-.36-.73-.36-.38,0-.67,.17-.86,.51v1.77c.19,.34,.48,.51,.87,.51,.3,0,.54-.12,.72-.36s.27-.6,.27-1.07Z"/>
 <path class="cls-1" d="M166.72,126.47l1.63,4.06,1.63-4.06h.85v4.98h-.66v-1.94l.06-2.09-1.63,4.03h-.5l-1.63-4.02,.07,2.08v1.94h-.66v-4.98h.85Z"/>
 <path class="cls-1" d="M171.88,129.56c0-.36,.07-.69,.21-.98,.14-.29,.34-.51,.59-.67,.25-.16,.54-.24,.87-.24,.5,0,.91,.17,1.22,.52,.31,.35,.47,.81,.47,1.39v.04c0,.36-.07,.68-.21,.97s-.33,.51-.59,.67c-.26,.16-.55,.24-.88,.24-.5,0-.91-.17-1.22-.52-.31-.35-.47-.81-.47-1.38v-.04Zm.64,.07c0,.41,.09,.74,.29,.99s.44,.37,.76,.37,.58-.13,.77-.38,.28-.6,.28-1.06c0-.41-.1-.73-.29-.99s-.45-.38-.77-.38-.56,.12-.75,.37c-.19,.25-.29,.6-.29,1.07Z"/>
 <path class="cls-1" d="M179.32,129.63c0,.57-.13,1.02-.39,1.36s-.61,.51-1.05,.51c-.47,0-.83-.17-1.08-.5l-.03,.43h-.58v-5.25h.63v1.96c.25-.32,.61-.48,1.06-.48s.8,.17,1.06,.51c.26,.34,.38,.8,.38,1.39v.05Zm-.63-.07c0-.43-.08-.76-.25-1s-.41-.35-.72-.35c-.42,0-.72,.19-.9,.58v1.6c.19,.39,.5,.58,.91,.58,.3,0,.54-.12,.71-.35,.17-.23,.25-.59,.25-1.06Z"/>
 <path class="cls-1" d="M180.24,126.76c0-.1,.03-.19,.09-.26,.06-.07,.16-.11,.28-.11s.22,.04,.28,.11c.06,.07,.1,.16,.1,.26s-.03,.19-.1,.26-.16,.1-.28,.1-.22-.03-.28-.1-.09-.15-.09-.26Zm.68,4.68h-.63v-3.7h.63v3.7Z"/>
 <path class="cls-1" d="M182.73,131.44h-.63v-5.25h.63v5.25Z"/>
 <path class="cls-1" d="M185.41,131.51c-.5,0-.91-.17-1.22-.49s-.47-.77-.47-1.32v-.12c0-.37,.07-.69,.21-.98,.14-.29,.34-.51,.59-.68s.52-.24,.82-.24c.48,0,.85,.16,1.12,.48,.27,.32,.4,.77,.4,1.36v.26h-2.5c0,.36,.12,.66,.32,.88s.46,.34,.78,.34c.22,0,.41-.05,.57-.14,.15-.09,.29-.21,.41-.36l.39,.3c-.31,.48-.78,.71-1.39,.71Zm-.08-3.32c-.25,0-.47,.09-.64,.28s-.28,.45-.32,.78h1.85v-.05c-.02-.32-.1-.57-.26-.75s-.36-.26-.63-.26Z"/>
 <rect class="cls-1" x="84.65" y="80.44" width="16.83" height="16.83" rx=".94" ry=".94"/>
 <polygon class="cls-5" points="96.75 89.19 93.06 83.07 89.38 89.19 91.11 89.19 91.11 94.63 95.02 94.63 95.02 89.19"/>
 <rect class="cls-1" transform="translate(186.13 221.23) rotate(180)" x="84.65" y="102.2" width="16.83" height="16.83" rx=".94" ry=".94"/>
 <polygon class="cls-5" points="89.38 110.27 93.06 116.39 96.75 110.27 95.02 110.27 95.02 104.83 91.11 104.83 91.11 110.27"/>
 <rect class="cls-1" transform="translate(-38.52 182.71) rotate(-90)" x="63.68" y="102.2" width="16.83" height="16.83" rx=".94" ry=".94"/>
 <polygon class="cls-5" points="72.44 106.93 66.31 110.61 72.44 114.3 72.44 112.57 77.87 112.57 77.87 108.66 72.44 108.66"/>
 <rect class="cls-1" transform="translate(224.65 -3.42) rotate(90)" x="105.62" y="102.2" width="16.83" height="16.83" rx=".94" ry=".94"/>
 <polygon class="cls-5" points="113.69 114.3 119.82 110.61 113.69 106.93 113.69 108.66 108.26 108.66 108.26 112.57 113.69 112.57"/>
 <path class="cls-1" d="M184.72,88.63h-13.99c-.89,0-1.47-.93-1.07-1.73l7-13.99c.44-.88,1.7-.88,2.14,0l7,13.99c.4,.79-.18,1.73-1.07,1.73Z"/>
 <path class="cls-1" d="M170.73,106.15h13.99c.89,0,1.47,.93,1.07,1.73l-7,13.99c-.44,.88-1.7,.88-2.14,0l-7-13.99c-.4-.79,.18-1.73,1.07-1.73Z"/>
 <path class="cls-1" d="M168.96,90.39v13.99c0,.89-.93,1.47-1.73,1.07l-13.99-7c-.88-.44-.88-1.7,0-2.14l13.99-7c.79-.4,1.73,.18,1.73,1.07Z"/>
 <path class="cls-1" d="M186.49,104.38v-13.99c0-.89,.93-1.47,1.73-1.07l13.99,7c.88,.44,.88,1.7,0,2.14l-13.99,7c-.79,.4-1.73-.18-1.73-1.07Z"/>
</svg>
