<svg width="120mm" height="40mm" version="1.1" viewBox="0 0 120 40" xmlns="http://www.w3.org/2000/svg">
 <g transform="matrix(1.0013 0 0 1.0002 -113.68 -174.1)">
  <rect class="cls-9" x="113.54" y="174.06" width="119.85" height="39.99" rx="5.03" ry="5.03" fill="#f2b705"/>
  <g fill="#fff" stroke="#13303f" stroke-linecap="round" stroke-linejoin="round" stroke-width=".43px">
   <path class="cls-7" d="m119.3 193.92c0-1.96-0.05-3.47-0.28-5.73 0.47 0.07 1.36 0.1 2.03 0.1 0.47 0 1.15-0.02 1.8-0.13-0.11 1.41-0.21 2.63-0.21 6.79 0 1.71 0.02 3.2 0.18 4.82-0.81-0.1-1.1-0.15-1.88-0.15-0.63 0-1.22 0.03-1.82 0.07 0.11-2.01 0.18-3.49 0.18-5.76z"/>
   <path class="cls-7" d="m127.31 195.38c0.02 1.67 0.08 2.71 0.26 4.37-0.31-0.06-0.7-0.1-1.59-0.1-0.63 0-0.88 0.02-1.74 0.08 0.13-2.09 0.21-3.85 0.21-5.97 0-1.66-0.05-3.41-0.13-5.49 0.67 0.05 1.31 0.07 2.03 0.07s1.23-0.02 1.95-0.08c0.86 1.92 2.09 4.35 2.92 5.73-0.03-2.03-0.11-3.47-0.34-5.71 0.39 0.02 0.91 0.02 1.22 0.02 0.94 0 1.33-0.03 2.14-0.11-0.18 2.21-0.18 4.22-0.18 6.4 0 1.7 0 3.44 0.08 5.11-0.65-0.08-1.19-0.08-1.67-0.08-0.68 0-1.3 0.03-1.93 0.08-1.04-1.96-2.09-3.86-3.23-5.83v1.53z"/>
   <path class="cls-7" d="m142.13 190.92c-0.42-0.11-1.27-0.32-2.03-0.32-1.01 0-1.25 0.37-1.25 0.76 0 1.58 3.98 0.73 3.98 4.71 0 3.26-2.68 3.75-4.63 3.75-0.88 0-1.49-0.1-2.53-0.31 0-0.62 0.08-1.53 0.08-2.68 0.57 0.21 1.43 0.34 2.19 0.34 0.81 0 1.45-0.15 1.45-0.81 0-1.69-4.09-0.99-4.09-4.94 0-2.71 1.92-3.3 4.37-3.3 1.22 0 2.01 0.15 2.63 0.28l-0.16 2.52z"/>
   <path class="cls-7" d="m146.54 193.48c0-1.2-0.02-1.77-0.11-2.76-1.05 0-2.09 0.02-3.2 0.18 0.05-0.5 0.1-1.25 0.1-1.85 0-0.34-0.02-0.63-0.05-0.83 1.72 0.1 3.31 0.15 4.84 0.15 1.77 0 4.29-0.06 5.24-0.15-0.02 0.26-0.02 0.49-0.02 0.75 0 0.67 0.03 1.27 0.08 1.93-0.99-0.18-2.13-0.18-3.2-0.18-0.1 0.81-0.11 1.83-0.11 3.1 0 1.82 0.03 3.9 0.16 5.91-0.81-0.08-1.27-0.08-1.83-0.08-0.86 0-1.32 0-2.14 0.07 0.21-2.24 0.24-4.53 0.24-6.23z"/>
   <path class="cls-7" d="m157.75 194.88c0.03 1.53 0.05 3.33 0.19 4.85-0.71-0.1-0.97-0.11-2.06-0.11-0.46 0-0.89 0-1.48 0.08 0.08-1.53 0.11-2.86 0.11-4.24 0-2.19-0.08-4.3-0.26-7.26 0.86 0.05 1.83 0.05 2.55 0.05 0.62 0 2.22-0.07 2.89-0.07 2.27 0 3.3 0.76 3.3 2.92 0 1.82-0.71 2.97-1.72 3.41 0.67 1.22 2.21 3.59 3.41 5.2-0.5-0.02-1.51-0.02-2.27-0.02-0.86 0-1.27 0-1.74 0.07-0.81-1.51-1.82-3.25-2.92-4.89zm0.03-2.78c0 0.57 0 1.14 0.02 1.71 0 0 0.31 0.1 0.7 0.1 0.86 0 1.32-0.5 1.32-2.03 0-0.81-0.13-1.56-1.27-1.56-0.16 0-0.5 0.02-0.75 0.07-0.02 0.57-0.02 1.15-0.02 1.72z"/>
   <path class="cls-7" d="m174.04 196.18c0 1.96-0.88 3.64-4.68 3.64-2.99 0-4.63-1.04-4.63-3.78 0-1.59 0.02-2.44 0.02-3.82s-0.02-2.65-0.18-3.96c0.41 0.03 1.22 0.08 2 0.08 0.63 0 1.43-0.03 2.03-0.1-0.28 1.75-0.34 4.12-0.34 6.01s0.02 2.52 0.23 2.97c0.18 0.37 0.39 0.55 1.05 0.55 0.55 0 0.81-0.13 0.99-0.42 0.26-0.41 0.26-0.91 0.26-2.99 0-3.33-0.16-5.07-0.36-6.12 0.63 0.05 1.25 0.08 2.09 0.08 0.58 0 1.14-0.02 1.62-0.05-0.1 0.86-0.11 1.67-0.11 2.89v5.02z"/>
   <path class="cls-7" d="m182.03 199.31c-0.96 0.41-1.83 0.5-2.45 0.5-2.6 0-4.33-1.71-4.33-6.12 0-3.59 1.15-5.58 4.32-5.58 0.75 0 1.64 0.1 2.44 0.42l-0.29 2.24c-0.34-0.2-0.76-0.29-1.17-0.29-1.69 0-1.82 1.54-1.82 3.23 0 1.98 0.18 3.62 1.59 3.62 0.23 0 0.73-0.05 1.3-0.36l0.42 2.34z"/>
   <path class="cls-7" d="m185.98 193.48c0-1.2-0.02-1.77-0.11-2.76-1.05 0-2.09 0.02-3.2 0.18 0.05-0.5 0.1-1.25 0.1-1.85 0-0.34-0.02-0.63-0.05-0.83 1.72 0.1 3.31 0.15 4.84 0.15 1.77 0 4.29-0.06 5.24-0.15-0.02 0.26-0.02 0.49-0.02 0.75 0 0.67 0.03 1.27 0.08 1.93-0.99-0.18-2.13-0.18-3.2-0.18-0.1 0.81-0.11 1.83-0.11 3.1 0 1.82 0.03 3.9 0.16 5.91-0.81-0.08-1.27-0.08-1.83-0.08-0.86 0-1.32 0-2.14 0.07 0.21-2.24 0.24-4.53 0.24-6.23z"/>
   <path class="cls-7" d="m193.98 193.92c0-1.96-0.05-3.47-0.28-5.73 0.47 0.07 1.36 0.1 2.03 0.1 0.47 0 1.15-0.02 1.8-0.13-0.11 1.41-0.21 2.63-0.21 6.79 0 1.71 0.02 3.2 0.18 4.82-0.81-0.1-1.1-0.15-1.88-0.15-0.63 0-1.22 0.03-1.82 0.07 0.11-2.01 0.18-3.49 0.18-5.76z"/>
   <path class="cls-7" d="m198.65 193.74c0-4.08 1.27-5.63 4.9-5.63s4.64 1.56 4.64 5.44c0 4.3-1.25 6.27-4.84 6.27-3.05 0-4.71-1.41-4.71-6.07zm6.1 0.31c0-2.84-0.34-3.78-1.33-3.78-1.09 0-1.22 1.12-1.22 3.2 0 2.74 0.23 4.09 1.35 4.09 0.93 0 1.2-0.94 1.2-3.51z"/>
   <path class="cls-7" d="m212.41 195.38c0.02 1.67 0.08 2.71 0.26 4.37-0.31-0.06-0.7-0.1-1.59-0.1-0.63 0-0.88 0.02-1.74 0.08 0.13-2.09 0.21-3.85 0.21-5.97 0-1.66-0.05-3.41-0.13-5.49 0.67 0.05 1.31 0.07 2.03 0.07s1.23-0.02 1.95-0.08c0.86 1.92 2.09 4.35 2.92 5.73-0.03-2.03-0.11-3.47-0.34-5.71 0.39 0.02 0.91 0.02 1.22 0.02 0.94 0 1.33-0.03 2.14-0.11-0.18 2.21-0.18 4.22-0.18 6.4 0 1.7 0 3.44 0.08 5.11-0.65-0.08-1.19-0.08-1.67-0.08-0.68 0-1.3 0.03-1.93 0.08-1.04-1.96-2.09-3.86-3.23-5.83v1.53z"/>
   <path class="cls-7" d="m227.23 190.92c-0.42-0.11-1.27-0.32-2.03-0.32-1.01 0-1.25 0.37-1.25 0.76 0 1.58 3.98 0.73 3.98 4.71 0 3.26-2.68 3.75-4.63 3.75-0.88 0-1.49-0.1-2.53-0.31 0-0.62 0.08-1.53 0.08-2.68 0.57 0.21 1.43 0.34 2.19 0.34 0.81 0 1.45-0.15 1.45-0.81 0-1.69-4.09-0.99-4.09-4.94 0-2.71 1.92-3.3 4.37-3.3 1.22 0 2.01 0.15 2.63 0.28l-0.16 2.52z"/>
  </g>
 </g>
</svg>
