<svg version="1.1" viewBox="0 0 25.7 85.81" xmlns="http://www.w3.org/2000/svg">
 <defs>
  <style>.cls-1{fill:#a66f3f;}.cls-2{fill:#704726;}</style>
 </defs>
 <path class="cls-1" d="M17.49,6.3v1.79c0,.64,.52,1.16,1.16,1.16h2.87c.64,0,1.16-.52,1.16-1.16V1.16C22.68,.52,23.2,0,23.84,0h.7c.64,0,1.16,.52,1.16,1.16V9.25s0,0,0,0c0,1.67-1.35,3.02-3.02,3.02h-4.03c-.64,0-1.16,.52-1.16,1.16v1.79c0,.64-.52,1.16-1.16,1.16h-.7c-.64,0-1.16-.52-1.16-1.16v-2.95s0-3.02,0-3.02v-2.95c0-.64,.52-1.16,1.16-1.16h.7c.64,0,1.16,.52,1.16,1.16Z"/>
 <path class="cls-1" d="M8.21,6.3v1.79c0,.64-.52,1.16-1.16,1.16h-2.87c-.64,0-1.16-.52-1.16-1.16V1.16c0-.64-.52-1.16-1.16-1.16h-.7C.52,0,0,.52,0,1.16V9.25s0,0,0,0c0,1.67,1.35,3.02,3.02,3.02H7.05c.64,0,1.16,.52,1.16,1.16v1.79c0,.64,.52,1.16,1.16,1.16h.7c.64,0,1.16-.52,1.16-1.16V6.3c0-.64-.52-1.16-1.16-1.16h-.7c-.64,0-1.16,.52-1.16,1.16Z"/>
 <path class="cls-2" d="M24.44,24.96c0-6.36-6.4-2.44-6.4-6.76,0-4.03,.46-6.03-5.51-6.28-5.97,.25-5.51,2.25-5.51,6.28,0,4.32-6.4,.41-6.4,6.76s2.33,10.31,3.08,20.81c.76,10.5,.52,19,.52,19,0,0-1.65,14.71,8.3,14.86,9.95-.15,8.3-14.86,8.3-14.86,0,0-.23-8.5,.52-19,.76-10.5,3.08-14.46,3.08-20.81Z"/>
 <path class="cls-2" d="M1.23,16.38c0,1.61,1.83,2.11,4.13,1.61s4.13-1.22,4.13-1.61c0-.35-1.46-1.05-4.13-1.61-2.23-.47-4.13,.14-4.13,1.61Z"/>
 <path class="cls-2" d="M12.51,85.81c2.09,0,2.75-2.39,2.09-5.39s-1.58-5.39-2.09-5.39c-.46,0-1.37,1.9-2.09,5.39-.61,2.91,.18,5.39,2.09,5.39Z"/>
 <path class="cls-2" d="M23.85,16.42c0-1.61-1.83-2.11-4.13-1.61s-4.13,1.22-4.13,1.61c0,.35,1.46,1.05,4.13,1.61,2.23,.47,4.13-.14,4.13-1.61Z"/>
</svg>
