<svg version="1.0" viewBox="0 0 100 67.26" xml:space="preserve" xmlns="http://www.w3.org/2000/svg">
<path d="m99.487 54.225c-0.724-1.327-1.72-2.535-2.928-3.501-0.361-0.301-0.754-0.604-1.176-0.935-0.302-0.211-0.544-0.483-0.694-0.815-0.694-1.268-1.268-2.655-1.63-4.104-0.422-1.689-0.754-3.439-0.905-5.221l-0.181-1.659-0.091-0.936-0.03-0.423v-0.061c0-0.693-0.12-1.388-0.362-2.051-0.361-0.906-1.086-1.57-1.991-1.871-0.181-0.061-0.362-0.091-0.543-0.091-0.151 0-0.271 0-0.393 0.03-0.091 0.03-0.241 0.061-0.422 0.091l-0.664 0.15-0.453 0.121-0.452 0.121-0.694 0.121-0.724 0.211-0.814 0.182-0.725 0.211-0.423 0.151c-0.211 0.121-0.422 0.181-0.633 0.241-0.121 0.031-0.212 0.031-0.303 0.031-0.754-0.151-1.267-0.845-1.207-1.6 0.03-0.513 0.061-1.056 0.061-1.569 0-0.845-0.061-1.66-0.15-2.475l-0.061-0.513c0.181-0.03 0.302-0.121 0.452-0.241 0.725-0.785 1.146-1.811 1.146-2.896v-0.211c-0.029-0.634-0.241-1.268-0.603-1.78-0.996-1.479-2.384-2.716-3.983-3.53l-1.237-0.634-0.664-0.302-0.663-0.241-0.574-0.242-0.634-0.241-0.693-0.271c-0.302-0.09-0.604-0.181-0.936-0.271-0.936-0.211-1.871-0.332-2.776-0.392-0.724-0.03-1.448-0.061-2.172-0.061h-0.061c-1.146 0-2.324 0-3.501-0.03-0.332-0.03-0.633-0.03-0.936-0.03-0.935 0-1.87 0.061-2.806 0.121-0.271 0.03-0.514 0.03-0.755 0.03-0.905-0.03-1.811-0.121-2.686-0.302-0.693-0.121-1.328-0.302-1.991-0.543-0.423-0.181-0.905-0.332-1.389-0.483-0.331-0.091-0.633-0.211-0.905-0.362-0.331-0.182-0.663-0.333-1.025-0.483-0.513-0.181-0.996-0.422-1.479-0.725-0.483-0.271-1.026-0.573-1.569-0.845s-1.086-0.543-1.629-0.875c-0.604-0.332-1.237-0.604-1.871-0.785-1.238-0.362-2.505-0.543-3.802-0.573h-0.271c-1.569 0-3.138 0.181-4.677 0.513-1.509 0.302-2.987 0.694-4.436 1.116l-1.237 0.393-0.483 0.121 0.181-0.272 0.422-0.513 0.362-0.422 0.543-0.573 0.513-0.483 0.694-0.604 1.117-0.965 0.965-0.875 0.785-0.815 0.966-1.237c0.271-0.453 0.482-0.905 0.694-1.418 0.211-0.573 0.332-1.207 0.362-1.841v-0.151c0-0.573-0.091-1.177-0.211-1.75 0-0.06-0.03-0.09-0.091-0.09h-0.06c-0.664 1.268-1.449 2.535-2.293 3.742-0.422 0.634-0.935 1.177-1.539 1.569l-0.452 0.302c0.301-0.996 0.452-2.021 0.452-3.047l0.03-0.664-0.06-0.905-0.061-0.513c-0.061-0.151-0.211-0.272-0.362-0.272-0.181 0-0.332 0.121-0.393 0.272l-0.121 0.513-0.271 0.694-0.332 0.875-0.241 0.573-0.422 0.845c-0.151 0.362-0.393 0.694-0.694 0.936-0.482 0.42-1.236 0.058-1.236-0.576v-0.09l0.272-2.052c0.06-0.211 0.09-0.422 0.121-0.634v-0.03c0-0.09-0.061-0.151-0.151-0.181-0.061-0.03-0.091-0.03-0.151-0.03-0.091 0-0.211 0.03-0.302 0.09l-0.996 0.815-0.754 0.724-0.694 0.694-1.509 1.72c-0.332 0.302-0.845 0.121-0.905-0.332l-0.151-0.905-0.121-0.936-0.061-0.936-0.06-0.995-0.061-0.393c-0.03-0.09-0.09-0.151-0.181-0.151-0.151 0-0.302 0.091-0.392 0.211-0.724 0.936-1.358 1.961-1.871 3.078-0.15 0.332-0.392 0.664-0.633 0.935-0.302 0.302-0.815 0.182-0.936-0.211-0.121-0.392-0.241-0.754-0.362-1.146-0.15-0.453-0.181-0.785-0.09-1.117 0.09-0.453 0.121-0.905 0.121-1.358 0-0.271 0-0.543-0.03-0.815l-0.121-0.875c0-0.24-0.211-0.421-0.453-0.421-0.151 0-0.271 0.061-0.362 0.181-0.302 0.362-0.543 0.755-0.754 1.177-0.423 0.814-0.634 1.72-0.694 2.625l-0.03 0.543c-0.814-0.905-1.509-1.871-2.021-2.957l-0.121-0.242-0.543 3.108-0.211-0.483-0.182-0.452-0.302-0.664-0.573-1.116-0.754-1.146c-0.121-0.121-0.242-0.242-0.393-0.362-0.151-0.151-0.332-0.212-0.543-0.212-0.453 0-0.814 0.362-0.814 0.815 0 0.121 0 0.241 0.03 0.362 0.03 0.664 0.151 1.357 0.393 1.992l0.241 0.693 0.393 0.845c0.03 0.03 0.06 0.061 0.06 0.121-0.03 0.211-0.211 0.332-0.392 0.302l-0.122-0.03-0.272-0.09-0.241-0.151-0.453-0.271-1.569-1.299-0.211-0.181-0.302-0.241-0.212-0.211-0.181-0.212-0.331-0.332c0-0.03-0.03-0.03-0.061-0.06s-0.06-0.03-0.121-0.03-0.121 0.03-0.151 0.121c-0.03 0.09-0.03 0.151-0.03 0.241 0 0.091 0 0.181 0.03 0.272 0.182 0.724 0.393 1.448 0.695 2.112l0.483 1.237 0.151 0.392 0.03 0.151v0.03c0 0.09-0.061 0.151-0.121 0.211-0.15 0.06-0.301 0.06-0.392-0.03l-0.543-0.271-0.604-0.392-0.604-0.393-0.664-0.422-1.056-0.815-1.327-1.147-1.117-1.086c-0.09-0.061-0.15-0.09-0.272-0.121-0.03 0-0.06-0.03-0.09-0.03-0.09 0-0.181 0.061-0.241 0.151-0.061 0.061-0.09 0.15-0.09 0.241 0 0.06 0.03 0.121 0.03 0.151 0.694 1.599 1.66 3.048 2.836 4.254 0.573 0.574 1.146 1.117 1.78 1.6 0.725 0.573 1.509 1.117 2.324 1.569 0.241 0.15 0.482 0.301 0.754 0.453 0.362 0.241 0.724 0.482 1.056 0.754 0.362 0.271 0.664 0.604 0.936 0.936l0.241 0.332c-1.72 0.09-3.47 0.332-5.19 0.724-1.418 0.333-2.746 0.875-3.953 1.69-1.117 0.754-1.871 1.931-2.052 3.259-0.03 0.06-0.03 0.15-0.03 0.241 0 0.814 0.513 1.539 1.268 1.781 0.09 0.03 0.181 0.06 0.241 0.06 0.181 0 0.332-0.06 0.453-0.151l0.121-0.09c0.151 0.604 0.543 1.086 1.056 1.388 0.604 0.332 1.267 0.513 1.931 0.513h0.271c0.724-0.03 1.388-0.121 2.082-0.181 0.634-0.09 1.268-0.181 1.901-0.302 0.362-0.061 0.725-0.09 1.117-0.061 0.392 0.061 0.754 0.242 1.026 0.543 0.211 0.181 0.362 0.422 0.513 0.694 0.271 0.453 0.543 0.875 0.845 1.267 0.815 1.117 1.901 2.052 3.108 2.716 0.664 0.362 1.328 0.694 2.022 0.966 0.694 0.301 1.448 0.542 2.233 0.693 1.388 0.332 2.716 0.543 4.043 0.785 0.785 0.121 1.599 0.332 2.384 0.634 0.664 0.271 1.297 0.633 1.871 1.086 0.694 0.694 1.116 1.6 1.116 2.595v0.061l-0.06 1.448v0.182c0 0.845 0.211 1.659 0.604 2.383 0.09 0.212 0.181 0.393 0.271 0.574 0.03 0.15 0.09 0.271 0.121 0.423 0.09 0.361 0.121 0.724 0.121 1.116 0 0.211-0.03 0.452-0.06 0.664-0.061 0.542-0.151 1.116-0.302 1.689-0.09 0.513-0.271 0.966-0.543 1.418-0.392 0.694-0.875 1.388-1.358 2.052l-2.143 2.957-0.814 1.147-1.298 1.87-1.176 1.69-1.177 1.72-1.569 2.505c-0.483 0.845-1.056 1.6-1.69 2.323-0.694 0.784-1.328 1.599-1.961 2.414-0.634 0.814-1.358 1.509-2.172 2.052l-0.996 0.634-1.116 0.634-1.207 0.634-0.271 0.211c-0.061 0-0.091 0.03-0.121 0.061-0.09 0.06-0.15 0.15-0.15 0.241v0.091c0.06 0.211 0.241 0.392 0.453 0.452 0.392 0.121 0.754 0.181 1.146 0.181h0.181c1.328-0.06 2.414-0.12 3.53-0.211 0.814-0.061 1.78-0.302 2.655-0.724 0.302-0.121 0.574-0.302 0.875-0.483 0.332-0.241 0.664-0.543 0.905-0.875 0.181-0.271 0.393-0.513 0.604-0.754 1.207-1.6 2.354-3.229 3.5-4.889 0.513-0.784 1.207-1.69 1.931-2.535 1.147-1.327 2.203-2.686 3.259-4.043 1.268-1.66 2.656-3.289 4.074-4.828 0.362-0.393 0.754-0.845 1.177-1.328 0.242-0.271 0.604-0.634 0.936-0.935 0.513-0.483 0.905-1.087 1.117-1.781 0.211-0.633 0.453-1.207 0.664-1.78 1.237-2.896 5.462-2.564 6.216 0.513l0.211 0.875 0.151 0.664 0.151 0.876 0.091 0.482c0.302 1.298 0.573 2.595 0.785 3.893 0.061 0.302 0.15 0.664 0.211 1.026 0.061 0.331 0.151 0.633 0.272 0.936 0.392 0.936 0.845 1.84 1.388 2.686 0.422 0.664 0.965 1.236 1.569 1.75l2.504 1.931 1.508 1.298 0.694 0.663-1.392 0.573-0.846 0.393-0.753 0.331c-0.544 0.182-1.177 0.362-1.811 0.574-0.543 0.181-0.905 0.331-1.297 0.513-0.483 0.211-0.905 0.543-1.237 0.936-0.121 0.15-0.211 0.332-0.211 0.513 0.03 0.604 0.272 1.207 0.664 1.63 0.302 0.331 0.724 0.573 1.146 0.663 0.543 0.151 1.086 0.212 1.63 0.212h0.422c1.328-0.091 2.595-0.483 3.772-1.178l2.866-1.75 0.302-0.211c1.268 1.025 2.565 1.931 3.923 2.746 0.875 0.513 1.78 0.935 2.746 1.268 0.604 0.211 1.268 0.361 1.901 0.392l0.392 0.03c0.03-0.15 0.03-0.332 0.03-0.482 0-0.241-0.03-0.513-0.06-0.755-0.092-0.452-0.242-0.875-0.423-1.268-0.151-0.301-0.332-0.603-0.544-0.875-0.331-0.452-0.724-0.905-1.116-1.327l-0.452-0.483-0.543-0.542-0.694-0.544-0.604-0.453-0.483-0.392-0.543-0.302-0.482-0.241c0.755-0.785 1.569-1.539 2.414-2.233 1.72-1.418 2.987-2.444 4.285-3.47 0.604-0.513 1.659-1.63 2.504-2.867 0.332-0.452 0.514-1.025 0.544-1.599l0.029-0.423 0.091-0.995c0.271-2.354 0.966-4.647 2.021-6.76l0.182-0.362c1.116 2.052 3.229 3.38 5.552 3.44h0.212c1.599 0 3.138-0.483 4.405-1.448l1.297-0.936 1.057-0.725 1.116-0.693c0.121-0.091 0.271-0.121 0.423-0.121 0.604-0.03 1.177 0.181 1.629 0.543 0.182 0.121 0.332 0.271 0.423 0.453 0.15 0.211 0.241 0.422 0.362 0.663 0.15 0.332 0.241 0.694 0.302 1.026 0.029 0.332 0.061 0.573 0.091 0.845 0.06 0.332 0.09 0.725 0.15 1.086 0.061 0.604 0.181 1.178 0.362 1.75 0.15 0.574 0.332 1.147 0.482 1.721 0.362 1.418 0.936 2.776 1.69 4.014 0.603 0.965 1.267 1.9 2.021 2.745 0.271 0.332 0.634 0.604 0.995 0.875l1.36 0.873c0.995 0.664 2.143 0.996 3.319 0.996h0.03c0.452 0 0.814-0.302 0.935-0.724 0.091-0.331 0.121-0.693 0.121-1.025 0-0.694-0.181-1.388-0.513-2.022zm-36.179-7.815c-0.271 1.448-0.755 2.896-1.419 4.225-1.297 2.534-3.138 4.707-5.4 6.396l-0.333-0.271c-1.297-1.146-2.474-2.384-3.53-3.741l-1.116-1.419c-0.453-0.693-0.814-1.448-1.056-2.232-0.302-0.966-0.483-1.932-0.543-2.927-0.09-1.901-0.03-3.833 0.181-5.764 0.664 0 1.328 0 1.991 0.061 0.543 0.06 1.087 0.12 1.629 0.271 1.238 0.302 2.535 0.482 3.833 0.482 1.237 0 2.475-0.15 3.682-0.452 0.814-0.182 1.599-0.483 2.323-0.905l0.061 0.724c0.029 0.544 0.029 1.026 0.029 1.539-1e-3 1.357-0.121 2.685-0.332 4.013z"/>
<path d="m64.359 67.09c-1.7967-0.32527-4.1991-1.5838-6.8566-3.5917l-0.96474-0.72894-0.27838 0.18847c-0.15311 0.10366-0.86658 0.54787-1.5855 0.98714-2.5165 1.5376-3.3811 1.8621-5.138 1.928-1.9938 0.07485-3.0131-0.36078-3.5216-1.5051-0.10099-0.22723-0.18655-0.58829-0.19015-0.80236-6e-3 -0.3594 0.02512-0.4215 0.40661-0.81059 0.51435-0.52459 1.1676-0.84232 2.8978-1.4094 0.72396-0.23728 1.7439-0.62446 2.2665-0.86039 0.52263-0.23594 1.164-0.51358 1.4254-0.61699 0.26131-0.10341 0.47512-0.21298 0.47512-0.2435 0-0.16383-1.5835-1.5286-3.4923-3.01-1.6766-1.3011-2.3815-2.0273-3.0207-3.1114-1.0014-1.6986-1.1967-2.2693-1.8027-5.2657-0.30134-1.49-0.61728-3.0794-0.70209-3.5321-0.50476-2.6939-0.88368-3.5381-1.8654-4.1558-0.65463-0.41187-1.1746-0.53979-2.0362-0.50095-0.88424 0.03985-1.4364 0.25444-2.0425 0.79377-0.46647 0.41507-0.76457 0.97034-1.3084 2.4371-0.23225 0.62642-0.52007 1.2957-0.63961 1.4873-0.11954 0.19161-0.61317 0.75739-1.0969 1.2573-2.0695 2.1384-3.8577 4.2139-6.1584 7.1474-0.76629 0.97709-1.9003 2.39-2.5201 3.1399-1.4325 1.7333-1.4111 1.705-2.816 3.7183-2.6266 3.7641-3.8202 5.2875-4.4922 5.7335-0.25116 0.16671-0.71335 0.41234-1.0271 0.54585-1.2622 0.53713-2.2511 0.69062-5.1372 0.79739-1.2226 0.04523-1.5199 0.03198-1.9244-0.08579-0.36154-0.10527-0.50212-0.1914-0.5756-0.35267-0.08779-0.19269-0.07345-0.23248 0.14786-0.41018 0.13479-0.10824 0.80567-0.50718 1.4908-0.88655 2.4823-1.3744 3.2899-2.0209 4.6032-3.6851 0.41416-0.52479 1.129-1.402 1.5885-1.9494 0.99398-1.184 1.1004-1.3355 2.4348-3.4672 1.0196-1.6287 3.502-5.2638 5.3603-7.8494 0.52261-0.72714 1.4052-1.9548 1.9614-2.7282 1.0837-1.507 1.7215-2.5278 1.906-3.0505 0.30942-0.87649 0.53859-2.2495 0.53187-3.1865-0.0059-0.81639-0.12151-1.2811-0.54174-2.1767-0.45676-0.97345-0.56661-1.6133-0.50894-2.9645 0.05537-1.2974-0.01456-1.7867-0.36133-2.5277-0.32958-0.70429-0.94132-1.283-1.8643-1.7636-1.0089-0.52538-1.7871-0.75241-3.9241-1.1448-3.4955-0.64186-4.3706-0.86337-5.774-1.4615-2.6478-1.1286-4.2321-2.4472-5.5398-4.6109-0.65282-1.0801-1.1499-1.4409-1.9898-1.4442-0.25247-1e-3 -1.0519 0.0893-1.7765 0.20066-1.756 0.26986-3.0884 0.36968-3.7889 0.28385-1.0803-0.13238-2.1269-0.80562-2.3626-1.5199-0.076702-0.23241-0.12962-0.28628-0.23528-0.2395-0.75856 0.33582-1.7193-0.31763-1.8985-1.2913-0.14043-0.76281 0.27932-1.993 0.98048-2.8736 0.97054-1.219 3.1785-2.2724 5.9047-2.8173 1.2818-0.25619 3.1769-0.50308 3.8629-0.50326 0.21587-5.4e-5 0.39249-0.03194 0.39249-0.07085 0-0.17323-0.64564-0.88962-1.1958-1.3268-0.33108-0.2631-1.1472-0.80814-1.8137-1.2112-3.0476-1.8432-5.2463-4.0813-6.5398-6.6568-0.3886-0.77375-0.43554-0.98532-0.25236-1.1374 0.17028-0.14132 0.4503 0.0011952 0.87766 0.44668 0.43722 0.45576 1.7976 1.6458 2.5615 2.2408 0.70158 0.54643 2.4245 1.6657 2.8704 1.8646 0.38451 0.1716 0.68267 0.10196 0.68267-0.15945 0-0.075785-0.24508-0.76909-0.54462-1.5407-0.29954-0.77159-0.62437-1.7114-0.72185-2.0885-0.16202-0.62676-0.16596-0.69687-0.045809-0.81702 0.12015-0.12015 0.16139-0.097256 0.48065 0.26675 0.49551 0.56495 2.6045 2.2902 3.116 2.549 0.46459 0.23506 0.74725 0.24281 0.88424 0.024224 0.066671-0.10639 0.017765-0.29845-0.2104-0.82629-0.39562-0.91523-0.61421-1.6482-0.7214-2.4188-0.13984-1.0054-0.12126-1.1821 0.1531-1.4565 0.47476-0.47476 1.0243-0.24294 1.6865 0.71146 0.41302 0.59523 1.2073 2.1195 1.5379 2.9512 0.10387 0.26131 0.21552 0.47512 0.2481 0.47512 0.03259 0 0.16356-0.60422 0.29104-1.3427 0.12748-0.7385 0.25054-1.3927 0.27345-1.4537 0.02337-0.062245 0.17268 0.13727 0.34011 0.45446 0.33837 0.64105 1.0133 1.6276 1.4856 2.1715l0.31839 0.36663 0.0613-0.65583c0.12009-1.2848 0.48333-2.3426 1.1413-3.3236 0.3891-0.58011 0.64291-0.71243 0.88688-0.46236 0.2566 0.26302 0.36566 1.5771 0.23977 2.889l-0.10445 1.0885 0.26753 0.85705c0.15709 0.50326 0.3373 0.91674 0.43656 1.0016 0.45496 0.38921 0.95213-0.017935 1.623-1.3291 0.81601-1.5948 1.7156-2.9056 1.994-2.9056 0.19308 0 0.2291 0.15722 0.29348 1.2807 0.05665 0.98882 0.25123 2.5411 0.38108 3.0402 0.08883 0.34145 0.37287 0.51789 0.70109 0.43552 0.09891-0.024826 0.49596-0.40801 0.88232-0.85153 0.84419-0.96906 2.6949-2.7803 3.1744-3.1067 0.43006-0.29274 0.72925-0.24803 0.65639 0.09811-0.02536 0.1205-0.1264 0.78631-0.22451 1.4796-0.20686 1.4616-0.1683 1.6908 0.31858 1.8943 0.5973 0.24957 1.0829-0.12574 1.6678-1.289 0.3478-0.69174 1.1106-2.5999 1.2083-3.0226 0.03151-0.13634 0.0939-0.29437 0.13864-0.35117 0.11934-0.15151 0.45672-0.12587 0.54352 0.041314 0.24688 0.47552 0.15718 3.2599-0.14573 4.5236-0.0871 0.36337-0.14368 0.67536-0.12572 0.69332 0.0755 0.075495 1.302-0.93672 1.6171-1.3346 0.66791-0.84328 2.1259-3.1395 2.5175-3.9649 0.08086-0.17042 0.17186-0.30986 0.20222-0.30986 0.09375 0 0.24477 1.1128 0.24326 1.7924-2e-3 0.90956-0.18678 1.6806-0.61566 2.5693-0.65031 1.3476-1.6324 2.4448-4.1754 4.6649-0.70441 0.61497-1.4149 1.2617-1.5789 1.4373-0.58276 0.62379-1.2351 1.4744-1.152 1.5021 0.04641 0.01547 0.78211-0.1773 1.6349-0.42839 3.5262-1.0382 5.6739-1.4718 8.0369-1.6224 2.6308-0.16767 5.1544 0.2902 6.9408 1.2593 4.3075 2.3367 5.7116 3.0032 7.8498 3.7257 2.3848 0.80585 3.9808 1.0211 6.4864 0.87493 1.1348-0.06622 2.6807-0.0675 5.5775-0.0046 5.0847 0.11037 5.3982 0.15686 8.0976 1.201 1.524 0.58948 3.4022 1.5078 4.2655 2.0856 1.3606 0.91068 2.8633 2.5567 3.2712 3.5832 0.26096 0.65678 0.25294 1.9057-0.01672 2.6028-0.32273 0.83428-0.94539 1.6939-1.227 1.6939-0.09905 0-0.10855 0.09614-0.05507 0.55775 0.03554 0.30676 0.07493 1.475 0.08755 2.5962 0.02646 2.3516 0.0596 2.4909 0.68759 2.8891 0.46812 0.29687 0.66452 0.29608 1.4838-6e-3 1.0525-0.38806 5.2402-1.4098 5.7782-1.4098 0.46507 0 1.4047 0.49007 1.8353 0.95726 0.57485 0.62364 0.98875 1.7798 0.99246 2.7723 0.0022 0.5869 0.39902 4.2804 0.5847 5.4422 0.38406 2.4031 0.88554 4.2406 1.6063 5.8861 0.6602 1.5072 0.857 1.7671 2.0751 2.7406 0.59591 0.47627 1.3525 1.1563 1.6813 1.5111 0.7167 0.77351 1.666 2.1777 1.9083 2.8229 0.44977 1.1972 0.38211 2.5387-0.15202 3.0143-0.34892 0.31071-1.4662 0.24664-2.6049-0.14936-0.6204-0.21575-2.3675-1.2729-3.0762-1.8614-0.82151-0.68215-2.4008-2.8358-3.1049-4.2341-0.51402-1.0208-0.79844-1.8058-1.3097-3.6148-0.60452-2.1389-0.55428-1.905-0.78774-3.667-0.20766-1.5671-0.30522-1.9453-0.67905-2.6321-0.3934-0.7228-1.2643-1.221-2.1344-1.221-0.28962 0-0.50557 0.10206-1.3262 0.62673-0.53914 0.3447-1.4393 0.96053-2.0005 1.3685-1.0747 0.78137-1.7638 1.1911-2.4625 1.464-1.16 0.45314-3.0072 0.57033-4.1861 0.26557-1.4208-0.36728-2.9515-1.4418-3.7431-2.6275-0.17536-0.26269-0.34519-0.51014-0.37739-0.54989-0.07372-0.09099-0.54435 0.83822-0.98687 1.9485-0.70566 1.7705-1.148 3.6612-1.356 5.7957-0.15056 1.5454-0.20328 1.7345-0.67756 2.4302-0.95122 1.3953-1.8665 2.3302-3.7849 3.8656-2.9974 2.3991-5.4603 4.5701-5.3251 4.6941 0.02027 0.01858 0.2406 0.13618 0.48962 0.26131 0.24903 0.12514 0.92178 0.59154 1.495 1.0365 1.6212 1.2583 3.1945 3.1067 3.626 4.26 0.19709 0.52677 0.38524 1.6803 0.30723 1.8836-0.06044 0.1575-0.28204 0.15809-1.1386 3e-3zm-6.9565-10.74c2.3498-1.9621 4.3219-4.759 5.264-7.4656 0.59348-1.705 0.81566-2.9027 0.96244-5.1881 0.07974-1.2416 0.03786-3.5801-0.06412-3.5801-0.02161 0-0.31893 0.13271-0.66073 0.2949-0.63233 0.30006-1.9617 0.67811-3.081 0.87618-0.38917 0.06887-1.2499 0.1078-2.3136 0.10466-1.7346-0.0051-2.3519-0.0768-3.924-0.45565-0.68051-0.16399-3.3823-0.39959-3.4785-0.30334-0.13066 0.13066-0.22274 1.689-0.23068 3.9039-0.0097 2.6973 0.05751 3.2713 0.57058 4.8751 0.39637 1.239 0.81112 1.9549 2.0201 3.4866 1.0178 1.2895 3.7688 4.1571 3.987 4.1561 0.05788-2.48e-4 0.48467-0.31734 0.94844-0.70458z" fill="#e6e6e6" stroke="#e6e6e6" stroke-width=".082629"/></svg>
