<svg width="120mm" height="40mm" version="1.1" viewBox="0 0 120 40" xmlns="http://www.w3.org/2000/svg">
 <g transform="matrix(1.0013 0 0 1.0002 -113.68 -118.21)">
  <rect class="cls-9" x="113.54" y="118.18" width="119.85" height="39.99" rx="5.03" ry="5.03" fill="#f2b705"/>
  <g fill="#fff" stroke="#13303f" stroke-linecap="round" stroke-linejoin="round" stroke-width=".62px">
   <path class="cls-6" d="m152.99 146.48c-1.13-0.14-1.9-0.16-2.61-0.16-0.99 0-1.6 0.05-2.47 0.14 0.19-2.42 0.28-4.7 0.28-7.66 0-2.56-0.07-5.83-0.31-9 1.2 0.12 2.28 0.12 3.29 0.12 1.5 0 3.48-0.14 4.51-0.14 3.08 0 4.51 1.27 4.51 4.84 0 4.16-1.95 6.58-5.88 6.58-0.66 0-1.15-0.07-1.55-0.19 0.02 1.9 0.09 4.3 0.21 5.47zm0.59-8.11c1.08 0 2.07-0.59 2.07-3.05 0-1.57-0.4-2.47-1.86-2.47-0.23 0-0.49 0.02-0.99 0.09-0.02 0.8-0.02 1.48-0.02 2.14 0 1.06 0 2.09 0.02 3.17 0.23 0.07 0.47 0.12 0.78 0.12z"/>
   <path class="cls-6" d="m171.53 146.43c-2.21-0.12-3.05-0.14-4.56-0.14-1.72 0-2.75 0-5.17 0.16 0.12-2.23 0.17-5.47 0.17-7.97s-0.05-4.98-0.38-8.67c1.15 0.09 1.93 0.12 2.68 0.12 1.32 0 2.33-0.07 2.84-0.21-0.31 3.34-0.33 5.55-0.33 9.38 0 1.34 0 2.3 0.05 3.76 1.76-0.02 3.83-0.05 5.03-0.21z"/>
   <path class="cls-6" d="m181.73 142.25c-0.75-0.02-1.76-0.02-2.21-0.02-0.47 0-1.5 0.02-2.21 0.05-0.33 1.58-0.59 3.1-0.75 4.18-0.73-0.09-1.79-0.12-2.4-0.12-1.01 0-1.36 0-2.28 0.12 1.48-4.72 3.15-9.8 5.08-16.59 0.87 0.02 2.16 0.02 2.91 0.02 1.22 0 1.69-0.05 3.27-0.09 1.41 5.85 4.09 14.17 4.91 16.66-0.96-0.07-1.36-0.07-2.73-0.07-0.63 0-1.95 0.05-2.42 0.09zm-2.37-8.2c-0.16 0.66-0.73 2.7-1.29 5.01 0.42 0.02 0.87 0.02 1.32 0.02 0.47 0 0.96 0 1.43-0.02-0.63-2.28-1.25-4.32-1.46-5.01z"/>
   <path class="cls-6" d="m191.52 146.39c-0.75 0-1.55 0.02-2.09 0.09 0.14-2.58 0.21-5.78 0.21-6.67-0.75-1.83-3.08-6.65-4.68-9.92 1.22 0.12 1.72 0.12 3.27 0.12 1.32 0 1.55-0.02 2.12-0.12 0.59 1.74 0.92 2.42 2.54 6.2 0.8-1.95 1.57-4 2.26-6.2 0.4 0.05 1.29 0.12 1.79 0.12 0.28 0 1.76-0.02 2.12-0.12-2.04 3.76-3.17 6.79-4.65 9.87-0.02 0.47-0.02 1.13-0.02 1.71 0 1.69 0.07 2.98 0.23 5.15-0.78-0.17-1.76-0.24-3.08-0.24z"/>
  </g>
 </g>
</svg>
