<svg version="1.1" viewBox="0 0 346.93 321.72" xmlns="http://www.w3.org/2000/svg">
 <defs>
  <style>.cls-1{fill:#8a3204;}.cls-2{letter-spacing:0em;}.cls-3{letter-spacing:0em;}.cls-4{letter-spacing:0em;}.cls-5{fill:#13303f;}.cls-6{fill:#7fd8f8;}.cls-7{fill:#fedd36;}.cls-8{letter-spacing:0em;}.cls-9{letter-spacing:0em;}.cls-10{letter-spacing:.01em;}.cls-11{fill:#ffdc83;}.cls-12{font-size:23.5px;stroke-width:.62px;}.cls-12,.cls-13{fill:#fff;font-family:Salden-BlackCondensed, Salden;stroke:#13303f;stroke-linecap:round;stroke-linejoin:round;}.cls-14{letter-spacing:-.12em;}.cls-15{letter-spacing:0em;}.cls-13{font-size:16.24px;stroke-width:.43px;}.cls-16{fill:#fe071c;}.cls-17{letter-spacing:0em;}.cls-18{letter-spacing:-.02em;}.cls-19{letter-spacing:-.03em;}.cls-20{fill:#f2b705;}.cls-21{letter-spacing:0em;}.cls-22{letter-spacing:0em;}</style>
 </defs>
 <rect class="cls-20" x="40.29" y="21.63" width="266.34" height="300.09" rx="4.33" ry="4.33"/>
 <rect class="cls-11" x="64.9" y="67.87" width="217.13" height="230.61" rx="4.67" ry="4.67"/>
 <path class="cls-5" d="M9.35,69.37c-2.02,0-3.95-.74-5.45-2.09-1.87-1.68-2.87-4.18-2.68-6.67,.64-8.76,.87-18.86,.87-24.85C2.09,23.04,1.11,16.07,.11,10.01-.3,7.51,.45,5.01,2.17,3.14,3.71,1.47,5.9,.52,8.16,.52c.24,0,.47,.01,.71,.03,2.25,.19,6.9,.19,8.89,.19,2.1,0,5.63-.15,7.67-.39,.31-.04,.64-.06,.96-.06,1.89,0,3.7,.65,5.15,1.83,1.42-1.09,3.15-1.68,4.97-1.68,.31,0,.63,.02,.94,.05,2.07,.24,6.75,.24,8.51,.24,1.63,0,3.33-.12,5.47-.28l2.07-.15c.22-.01,.39-.02,.57-.02,2.2,0,4.34,.91,5.87,2.49,1.67,1.73,2.49,4.1,2.25,6.5-.74,7.17-1,14.41-1,27.66,0,7.13,.07,14.28,.86,23.4,.21,2.41-.65,4.77-2.36,6.48-1.54,1.54-3.59,2.39-5.77,2.39-.23,0-.47-.01-.71-.03-2.01-.18-4.23-.34-6.88-.34-2.43,0-5.52,.13-8.47,.35-.2,.01-.4,.02-.61,.02-1.96,0-3.88-.72-5.35-2-1.48,1.32-3.44,2.08-5.44,2.08-.27,0-.54-.01-.82-.04-2.25-.23-4.78-.33-7.96-.33-2.64,0-5.14,0-6.87,.31-.48,.09-.97,.13-1.46,.13Z"/>
 <path class="cls-5" d="M9.35,65.29c-1,0-1.97-.37-2.73-1.05-.94-.84-1.43-2.08-1.34-3.33,.65-8.86,.88-19.09,.88-25.15,0-13.03-1-20.19-2.03-26.42-.2-1.24,.18-2.51,1.03-3.44,.78-.84,1.86-1.31,3-1.31,.12,0,.23,0,.35,.01,2.43,.21,7.04,.21,9.25,.21s5.93-.16,8.15-.42c.16-.02,.32-.03,.48-.03,1.05,0,2.07,.41,2.84,1.15,.88,.85,1.33,2.05,1.23,3.27-.51,6.08-.7,11.89-.77,15.73,.61,.01,1.21,.02,1.76,.02,.69,0,1.41,0,2.11-.03-.16-5.52-.64-10.86-1.11-15.5-.12-1.23,.32-2.45,1.2-3.32,.77-.75,1.8-1.17,2.86-1.17,.16,0,.32,0,.48,.03,2.29,.27,6.97,.27,8.97,.27,1.76,0,3.53-.13,5.77-.29l2.07-.15c.09,0,.19,0,.28,0,1.1,0,2.16,.45,2.93,1.25,.84,.86,1.25,2.06,1.12,3.25-.75,7.33-1.02,14.68-1.02,28.08,0,7.22,.07,14.47,.88,23.75,.11,1.2-.33,2.39-1.18,3.24-.77,.77-1.81,1.19-2.88,1.19-.12,0-.24,0-.36-.02-2.09-.18-4.42-.36-7.23-.36-2.53,0-5.72,.13-8.77,.36-.1,0-.2,.01-.31,.01-1.1,0-2.16-.45-2.94-1.25-.84-.87-1.25-2.08-1.12-3.28,.28-2.49,.42-5.56,.42-8.85l.05-8.6c-.82-.03-1.67-.04-2.59-.04-.48,0-.95,0-1.4,0,.06,4.94,.25,12.15,.85,17.57,.13,1.22-.29,2.44-1.16,3.32-.77,.78-1.81,1.21-2.9,1.21-.14,0-.27,0-.41-.02-2.4-.24-5.06-.35-8.37-.35-2.83,0-5.51,0-7.6,.38-.24,.04-.49,.07-.73,.07Z"/>
 <path class="cls-5" d="M78.23,69.75c-.33,0-.66-.02-1-.06l-1.24-.15c-2.65-.32-3.75-.46-6.4-.46s-5.11,.13-7.74,.28c-.04,0-.49,.02-.6,.02-2.15,0-4.26-.87-5.78-2.4-1.64-1.64-2.5-3.91-2.37-6.23,.53-9.45,.81-16.06,.81-25.95,0-8.63-.19-15.24-1.22-25.45-.25-2.51,.64-4.94,2.45-6.69,1.53-1.48,3.54-2.29,5.67-2.29,.38,0,.76,.03,1.13,.08,1.52,.21,5.04,.37,8.17,.37,2.79,0,5.03-.15,6.86-.47,.46-.08,.93-.12,1.4-.12,2.04,0,3.99,.76,5.5,2.13,1.85,1.69,2.84,4.19,2.64,6.69-.5,6.28-.94,11.7-.94,30.45,0,7.39,.06,14.09,.78,21.28,.25,2.48-.63,4.9-2.41,6.64-1.53,1.5-3.56,2.33-5.71,2.33Z"/>
 <path class="cls-5" d="M78.23,65.66c-.16,0-.32,0-.49-.03l-1.26-.15c-2.74-.34-4-.49-6.89-.49-2.74,0-5.28,.14-7.96,.28,0,0-.3,.01-.37,.01-1.08,0-2.12-.43-2.89-1.2-.82-.82-1.25-1.95-1.19-3.11,.54-9.53,.81-16.2,.81-26.18,0-8.76-.2-15.47-1.24-25.86-.13-1.24,.33-2.48,1.23-3.35,.77-.74,1.78-1.14,2.83-1.14,.18,0,.37,.01,.56,.04,1.95,.27,5.87,.41,8.74,.41,3.03,0,5.5-.18,7.56-.53,.23-.04,.47-.06,.7-.06,1.01,0,1.99,.37,2.75,1.06,.93,.85,1.42,2.08,1.32,3.34-.51,6.37-.95,11.86-.95,30.77,0,7.5,.06,14.31,.8,21.69,.12,1.23-.32,2.45-1.2,3.32-.77,.75-1.79,1.17-2.86,1.17Z"/>
 <path class="cls-5" d="M107.9,69.97c-14.01,0-30.71-6.09-30.71-35.1S94.82,0,109.61,0c8.28,0,16.16,1.85,17.82,2.35,3.58,1.07,5.97,4.43,5.81,8.17l-.52,12.13c-.09,2.02-.91,3.9-2.28,5.31,.04,.04,.09,.08,.13,.12,1.83,1.71,2.77,4.12,2.58,6.61-.31,3.93-.35,8.6-.35,12.23s0,8.73,.26,11.22c.36,3.51-1.56,6.84-4.78,8.28-5.18,2.33-14.17,3.54-20.38,3.54Z"/>
 <path class="cls-5" d="M107.9,65.89c-17.67,0-26.62-10.44-26.62-31.02s9.53-30.79,28.34-30.79c7.71,0,15.2,1.75,16.65,2.18,1.79,.54,2.99,2.22,2.91,4.08l-.52,12.13c-.06,1.38-.81,2.63-1.99,3.33-.64,.38-1.36,.57-2.08,.57-.61,0-1.23-.14-1.8-.42-3.26-1.6-6.96-2.48-10.4-2.48-5.18,0-7.45,1.07-7.45,11.32,0,4.44,.5,9.12,1.81,10.85v-2.67c0-3.38-.15-6.08-.29-8.47-.07-1.18,.38-2.33,1.22-3.15,.77-.75,1.79-1.16,2.85-1.16,.11,0,.22,0,.33,.01,2.59,.21,4.97,.21,6.89,.21,3.39,0,4.45-.06,6.68-.4,.2-.03,.41-.05,.61-.05,1.02,0,2.02,.39,2.78,1.09,.91,.85,1.38,2.07,1.29,3.31-.32,4.07-.36,8.85-.36,12.55s0,8.94,.28,11.64c.18,1.75-.78,3.42-2.39,4.14-4.61,2.07-13.08,3.18-18.71,3.18Z"/>
 <path class="cls-5" d="M133.46,69.37c-2.02,0-3.95-.74-5.45-2.09-1.87-1.68-2.87-4.18-2.68-6.67,.64-8.76,.87-18.86,.87-24.85,0-12.71-.98-19.69-1.97-25.75-.41-2.5,.34-5.01,2.06-6.87,1.54-1.66,3.72-2.62,5.99-2.62,.24,0,.47,.01,.71,.03,2.25,.19,6.9,.19,8.89,.19,2.1,0,5.63-.15,7.67-.39,.31-.04,.64-.06,.96-.06,1.89,0,3.7,.65,5.15,1.83,1.42-1.09,3.15-1.68,4.97-1.68,.31,0,.63,.02,.94,.05,2.07,.24,6.75,.24,8.51,.24,1.63,0,3.33-.12,5.47-.28l2.07-.15c.22-.01,.39-.02,.57-.02,2.2,0,4.34,.91,5.87,2.49,1.67,1.73,2.49,4.1,2.25,6.5-.74,7.17-1,14.41-1,27.66,0,7.13,.07,14.28,.86,23.4,.21,2.41-.65,4.77-2.36,6.48-1.54,1.54-3.59,2.39-5.77,2.39-.23,0-.47-.01-.71-.03-2.01-.18-4.23-.34-6.88-.34-2.43,0-5.52,.13-8.47,.35-.2,.01-.4,.02-.61,.02-1.96,0-3.88-.72-5.35-2-1.48,1.32-3.44,2.08-5.44,2.08-.27,0-.54-.01-.82-.04-2.25-.23-4.78-.33-7.96-.33-2.64,0-5.14,0-6.87,.31-.48,.09-.97,.13-1.46,.13Z"/>
 <path class="cls-5" d="M133.46,65.29c-1,0-1.97-.37-2.73-1.05-.94-.84-1.43-2.08-1.34-3.33,.65-8.86,.88-19.09,.88-25.15,0-13.01-1-20.19-2.03-26.42-.2-1.24,.18-2.51,1.03-3.44,.78-.84,1.86-1.31,3-1.31,.12,0,.23,0,.35,.01,2.43,.21,7.04,.21,9.25,.21s5.93-.16,8.15-.42c.16-.02,.32-.03,.48-.03,1.05,0,2.07,.41,2.84,1.15,.88,.85,1.33,2.05,1.23,3.27-.51,6.08-.7,11.89-.77,15.73,.61,.01,1.21,.02,1.76,.02,.69,0,1.41,0,2.11-.03-.16-5.52-.64-10.86-1.11-15.5-.12-1.23,.32-2.45,1.2-3.32,.77-.75,1.8-1.17,2.86-1.17,.16,0,.32,0,.48,.03,2.29,.27,6.97,.27,8.97,.27,1.76,0,3.53-.13,5.77-.29l2.07-.15c.09,0,.19,0,.28,0,1.1,0,2.16,.45,2.93,1.25,.84,.86,1.25,2.06,1.12,3.25-.75,7.33-1.02,14.68-1.02,28.08,0,7.22,.07,14.47,.88,23.75,.11,1.2-.33,2.39-1.18,3.24-.77,.77-1.81,1.19-2.88,1.19-.12,0-.24,0-.36-.02-2.09-.18-4.42-.36-7.23-.36-2.53,0-5.72,.13-8.77,.36-.1,0-.2,.01-.31,.01-1.1,0-2.16-.45-2.94-1.25-.84-.87-1.25-2.08-1.12-3.28,.28-2.49,.42-5.56,.42-8.85l.05-8.6c-.82-.03-1.67-.04-2.59-.04-.48,0-.95,0-1.4,0,.06,4.94,.25,12.15,.85,17.57,.13,1.22-.29,2.44-1.16,3.32-.77,.78-1.81,1.21-2.9,1.21-.14,0-.27,0-.41-.02-2.4-.24-5.06-.35-8.37-.35-2.83,0-5.51,0-7.6,.38-.24,.04-.49,.07-.73,.07Z"/>
 <path class="cls-5" d="M227.49,69.97c-3.26,0-6.16-1.96-7.45-4.85-1.31,2.87-4.2,4.77-7.42,4.77-.34,0-.68-.02-1.02-.06-2.53-.32-5.25-.38-7.09-.38-2.35,0-3.72,.11-5.31,.23-.99,.08-1.94,.15-3.07,.21-.13,0-.26,0-.4,0-3.85,0-7.21-2.73-7.99-6.5-4.26-20.54-8.39-37.12-12.99-52.18-.78-2.55-.26-5.33,1.39-7.43,1.55-1.98,3.89-3.12,6.42-3.12,.16,0,.31,0,.47,.01,2.37,.14,5.25,.14,7.79,.14,2.75,0,6.91-.15,8.53-.27,.19-.02,.41-.03,.63-.03,2.91,0,5.54,1.57,6.99,3.96,1.44-2.39,4.06-3.96,6.99-3.96,.19,0,.38,0,.58,.02,2.71,.19,5.58,.28,9.02,.28,2.5,0,4.01,0,6.24-.25,.31-.03,.61-.05,.91-.05,2.79,0,5.3,1.42,6.78,3.63,1.49-2.12,3.95-3.48,6.68-3.48,.34,0,.68,.02,1.02,.06,1.26,.16,2.8,.23,4.71,.23,2.9,0,5.4,0,7.97-.26,.27-.03,.54-.04,.81-.04,2.5,0,4.83,1.12,6.38,3.08,1.73,2.17,2.24,5.05,1.35,7.69-3.15,9.34-5.89,19.85-9.08,32.03-1.69,6.46-3.43,13.13-5.45,20.44-.97,3.53-4.21,5.99-7.86,5.99-.38,0-.77-.03-1.15-.08-1.8-.26-3.79-.37-6.67-.37-3.1,0-5.23,.13-7.61,.45-.37,.05-.74,.07-1.1,.07Z"/>
 <path class="cls-5" d="M227.49,65.89c-1.91,0-3.59-1.34-3.99-3.25l-.83-4c-.69-3.37-1.42-6.91-2.19-10.46l-3.93,14.61c-.49,1.8-2.12,3.02-3.94,3.02-.17,0-.34-.01-.51-.03-2.75-.34-5.65-.41-7.6-.41-2.51,0-4.03,.12-5.63,.24-.92,.07-1.84,.14-2.95,.2-.07,0-.13,0-.2,0-1.92,0-3.6-1.35-3.99-3.25-4.29-20.67-8.45-37.36-13.08-52.54-.39-1.28-.13-2.66,.69-3.71,.78-.99,1.96-1.56,3.21-1.56,.08,0,.15,0,.23,0,2.49,.14,5.43,.14,8.03,.14,2.89,0,7.12-.15,8.84-.29,.11,0,.21-.01,.32-.01,1.92,0,3.6,1.35,3.99,3.25,1.09,5.25,2.13,9.96,3.18,14.35,1.14-4.88,2.18-9.78,2.76-14.07,.28-2.03,2.02-3.53,4.04-3.53,.1,0,.19,0,.29,.01,2.82,.2,5.78,.29,9.32,.29,2.55,0,4.24,0,6.69-.27,.15-.02,.31-.03,.46-.03,1.93,0,3.63,1.37,4,3.31,.81,4.23,1.92,9.01,3.11,13.7,.92-4.54,1.74-9.03,2.31-13.31,.27-2.05,2.02-3.55,4.04-3.55,.17,0,.34,.01,.51,.03,1.43,.18,3.14,.27,5.22,.27,3,0,5.6,0,8.37-.28,.14-.01,.27-.02,.41-.02,1.24,0,2.41,.56,3.19,1.54,.86,1.08,1.12,2.53,.68,3.85-3.19,9.46-5.95,20.04-9.16,32.3-1.69,6.47-3.44,13.15-5.43,20.39-.49,1.79-2.12,3-3.93,3-.19,0-.38-.01-.58-.04-1.99-.28-4.16-.41-7.24-.41-3.29,0-5.58,.14-8.16,.49-.18,.03-.37,.04-.55,.04Z"/>
 <path class="cls-5" d="M286.49,69.52c-3.65,0-6.88-2.46-7.86-5.98l-2.08-7.49c-.29,0-.92,0-1,0-.47,2.62-.83,4.87-1.07,6.46-.61,4.02-4,6.93-8.06,6.93-.35,0-.7-.02-1.05-.07-1.74-.23-4.61-.31-6.54-.31-3.07,0-3.8,0-6.18,.31-.35,.04-.7,.07-1.04,.07-2.42,0-4.7-1.06-6.26-2.92-1.79-2.14-2.37-5.01-1.53-7.68,.99-3.15,2-6.34,3.04-9.63l3.93,1.11-3.89-1.23c3.82-12.07,8.16-25.75,12.93-42.56,.99-3.49,4.22-5.93,7.85-5.93,.04,0,.19,0,.24,0,2.63,.07,6.61,.07,8.99,.07s3.68-.06,5.63-.13c1.23-.05,2.61-.1,4.47-.16h.24c3.78,0,7.05,2.57,7.93,6.25,4.82,19.98,14.3,48.88,15.36,52.1,.86,2.59,.37,5.43-1.32,7.58-1.56,2-3.9,3.14-6.43,3.14-.21,0-.41,0-.62-.02-2.73-.2-3.74-.2-8.01-.2-1.98,0-5.83,.16-6.85,.26-.27,.03-.54,.04-.82,.04Z"/>
 <path class="cls-5" d="M286.49,65.44c-1.81,0-3.43-1.21-3.93-2.99l-2.91-10.46c-1.56-.02-3.05-.02-3.88-.02s-2.2,.02-3.63,.06c-.81,4.21-1.4,7.85-1.71,9.87-.31,2.02-2.04,3.47-4.03,3.47-.17,0-.35-.01-.53-.03-1.93-.25-4.92-.34-7.07-.34-3.12,0-4.06,0-6.7,.34-.17,.02-.35,.03-.52,.03-1.2,0-2.35-.53-3.13-1.46-.89-1.07-1.18-2.51-.77-3.84,.99-3.15,2-6.36,3.05-9.65,3.84-12.12,8.19-25.86,12.99-42.77,.5-1.76,2.11-2.97,3.92-2.97,.04,0,.07,0,.11,0,2.7,.07,6.72,.07,9.12,.07s3.82-.06,5.82-.14c1.19-.05,2.56-.1,4.4-.16,.04,0,.08,0,.12,0,1.88,0,3.52,1.29,3.97,3.13,4.87,20.19,14.39,49.19,15.46,52.43,.43,1.29,.18,2.72-.66,3.79-.78,1-1.97,1.57-3.22,1.57-.1,0-.2,0-.3-.01-2.9-.21-4.05-.21-8.33-.21-2.01,0-6.01,.15-7.26,.28-.14,.01-.27,.02-.41,.02Z"/>
 <path class="cls-5" d="M324.68,69.97c-.56,0-1.13-.06-1.69-.18-1.81-.38-4.44-.57-8.06-.57-2.42,0-4.45,.08-5.56,.23-.36,.05-.71,.07-1.06,.07-2.06,0-4.03-.77-5.55-2.18-1.79-1.66-2.73-4-2.6-6.43,.36-6.63,.59-14.87,.64-19.06-3.11-7.16-10.74-22.84-13.96-29.44-1.3-2.65-1.06-5.81,.62-8.23,1.52-2.2,4.03-3.51,6.71-3.51,.26,0,.52,.01,.78,.04,3.48,.34,4.77,.34,9.56,.34,3.79,0,4.15-.06,5.36-.26,.44-.07,.89-.11,1.34-.11,3.36,0,6.36,2.06,7.59,5.16,1.23-3.11,4.2-5.16,7.59-5.16,.32,0,.64,.02,.97,.06,1.05,.12,3.54,.32,4.69,.32,1.51,0,4.22-.1,4.96-.19,.6-.14,1.21-.21,1.82-.21,2.49,0,4.82,1.14,6.38,3.12,2,2.55,2.28,6.06,.71,8.96-4,7.36-6.87,13.85-9.64,20.12-1.4,3.17-2.72,6.15-4.15,9.19-.02,1.1-.02,2.33-.02,3.47,0,5.28,.23,9.26,.72,15.67,.19,2.55-.84,5.08-2.76,6.76-1.5,1.3-3.4,2.02-5.38,2.02Z"/>
 <path class="cls-5" d="M324.68,65.89c-.28,0-.57-.03-.85-.09-2.11-.45-4.93-.66-8.9-.66-2.62,0-4.79,.09-6.09,.26-.18,.02-.35,.03-.53,.03-1.02,0-2.02-.38-2.77-1.09-.89-.83-1.37-2-1.3-3.21,.4-7.27,.63-16.4,.66-20.1-2.88-6.78-10.95-23.39-14.39-30.41-.65-1.33-.53-2.9,.31-4.12,.77-1.11,2.02-1.76,3.35-1.76,.13,0,.26,0,.39,.02,3.67,.35,5.13,.35,9.95,.35,4.12,0,4.6-.08,6.03-.32,.23-.04,.45-.06,.67-.06,1.72,0,3.3,1.1,3.86,2.77,1.2,3.55,2.04,5.65,3.99,10.19,1.29-3.51,2.42-6.82,3.42-10.09,.53-1.73,2.13-2.88,3.9-2.88,.16,0,.32,0,.48,.03,1.16,.14,3.82,.34,5.18,.34,1.5,0,4.96-.11,5.74-.26,.34-.09,.69-.14,1.03-.14,1.22,0,2.39,.57,3.17,1.57,1.01,1.28,1.11,3.05,.33,4.48-4.07,7.49-6.98,14.06-9.79,20.42-1.5,3.39-2.92,6.6-4.48,9.88-.04,1.31-.04,2.95-.04,4.43,0,5.41,.24,9.46,.73,15.98,.1,1.28-.42,2.53-1.38,3.38-.75,.66-1.71,1.01-2.69,1.01Z"/>
 <path class="cls-6" d="M37.7,51.76l.07-12.42c-2.38-.22-4.39-.3-6.7-.3-1.93,0-3.65,0-5.51,.22,0,5.51,.15,15.1,.89,21.87-2.98-.3-6.03-.37-8.78-.37-3.05,0-5.88,0-8.33,.45,.6-8.11,.89-18.3,.89-25.45,0-12.95-.97-20.31-2.08-27.08,2.6,.22,7.22,.22,9.6,.22,2.23,0,6.1-.15,8.63-.45-.6,7.14-.82,14.81-.82,20.02,1.27,.07,3.87,.15,5.88,.15s4.61-.08,6.25-.22c0-6.62-.52-13.17-1.19-19.79,2.53,.3,7.29,.3,9.45,.3,2.45,0,4.84-.22,8.11-.45-.82,7.96-1.04,15.7-1.04,28.5,0,7.44,.07,14.73,.89,24.11-2.53-.22-4.84-.37-7.59-.37s-6.1,.15-9.08,.37c.15-1.34,.45-4.46,.45-9.3Z"/>
 <path class="cls-6" d="M62.09,34.8c0-9-.22-15.92-1.27-26.26,2.16,.3,6.25,.45,9.3,.45,2.16,0,5.28-.08,8.26-.6-.52,6.47-.97,12.05-.97,31.1,0,7.81,.07,14.66,.82,22.1-3.72-.45-5.06-.67-8.63-.67-2.9,0-5.58,.15-8.33,.3,.52-9.23,.82-16,.82-26.41Z"/>
 <path class="cls-6" d="M110.8,42.98c0-3.42-.15-6.1-.3-8.7,2.75,.22,5.21,.22,7.22,.22,3.57,0,4.84-.08,7.29-.45-.3,3.79-.37,8.11-.37,12.87,0,3.94,0,9.15,.3,12.05-3.65,1.64-11.31,2.83-17.04,2.83-14.88,0-22.54-8.18-22.54-26.93,0-15.18,5.06-26.71,24.26-26.71,7.52,0,14.73,1.79,15.48,2.01l-.52,12.13c-3.94-1.93-8.26-2.9-12.2-2.9-9.75,0-11.53,5.95-11.53,15.4,0,12.72,3.27,15.62,7.07,15.62,1.71,0,2.9-.45,2.9-.45v-6.99Z"/>
 <path class="cls-6" d="M161.81,51.76l.07-12.42c-2.38-.22-4.39-.3-6.7-.3-1.93,0-3.65,0-5.51,.22,0,5.51,.15,15.1,.89,21.87-2.98-.3-6.03-.37-8.78-.37-3.05,0-5.88,0-8.33,.45,.6-8.11,.89-18.3,.89-25.45,0-12.95-.97-20.31-2.08-27.08,2.6,.22,7.22,.22,9.6,.22,2.23,0,6.1-.15,8.63-.45-.6,7.14-.82,14.81-.82,20.02,1.27,.07,3.87,.15,5.88,.15s4.61-.08,6.25-.22c0-6.62-.52-13.17-1.19-19.79,2.53,.3,7.29,.3,9.45,.3,2.45,0,4.84-.22,8.11-.45-.82,7.96-1.04,15.7-1.04,28.5,0,7.44,.07,14.73,.89,24.11-2.53-.22-4.84-.37-7.59-.37s-6.1,.15-9.08,.37c.15-1.34,.45-4.46,.45-9.3Z"/>
 <path class="cls-6" d="M212.61,61.73c-2.98-.37-6.1-.45-8.11-.45-4.09,0-5.73,.3-8.78,.45-3.65-17.56-7.81-35.34-13.17-52.9,2.6,.15,5.58,.15,8.26,.15,2.83,0,7.22-.15,9.15-.3,2.08,10.05,4.39,20.02,7.37,30.06,2.16-9.23,5.36-20.76,6.62-30.06,3.2,.22,6.33,.3,9.6,.3,2.6,0,4.46,0,7.14-.3,1.93,10.05,5.43,22.84,7.59,30.06,2.16-9.97,4.61-20.31,5.88-29.91,1.79,.22,3.72,.3,5.73,.3,3.13,0,5.8,0,8.78-.3-4.91,14.58-8.85,31.84-14.66,52.9-2.08-.3-4.39-.45-7.81-.45s-5.95,.15-8.7,.52c-2.01-9.67-4.24-20.98-6.77-30.21l-8.11,30.13Z"/>
 <path class="cls-6" d="M282.77,47.97c-2.38-.07-5.58-.07-6.99-.07-1.49,0-4.76,.07-6.99,.15-1.04,4.98-1.86,9.82-2.38,13.24-2.31-.3-5.65-.37-7.59-.37-3.2,0-4.32,0-7.22,.37,4.69-14.95,9.97-31.03,16.07-52.53,2.75,.07,6.85,.07,9.23,.07,3.87,0,5.36-.15,10.34-.3,4.46,18.53,12.95,44.86,15.55,52.75-3.05-.22-4.32-.22-8.63-.22-2.01,0-6.18,.15-7.66,.3l-3.72-13.39Zm-7.52-25.97c-.52,2.08-2.31,8.56-4.09,15.85,1.34,.07,2.75,.07,4.17,.07,1.49,0,3.05,0,4.54-.07-2.01-7.22-3.94-13.69-4.61-15.85Z"/>
 <path class="cls-6" d="M314.94,61.06c-2.38,0-4.91,.08-6.62,.3,.45-8.18,.67-18.3,.67-21.13-2.38-5.8-9.75-21.06-14.81-31.4,3.87,.37,5.43,.37,10.34,.37,4.17,0,4.91-.08,6.7-.37,1.86,5.51,2.9,7.66,8.04,19.64,2.53-6.18,4.98-12.65,7.14-19.64,1.27,.15,4.09,.37,5.65,.37,.89,0,5.58-.08,6.7-.37-6.47,11.9-10.04,21.5-14.73,31.25-.07,1.49-.07,3.57-.07,5.43,0,5.36,.22,9.45,.74,16.29-2.45-.52-5.58-.74-9.75-.74Z"/>
 <path class="cls-16" d="M237.07,91.76c-42.68-5.58-84.4-5.4-127.04,.53-1.71,.27-3.32-.91-3.59-2.65-1.39-8.81-2.09-13.21-3.49-22.02-.27-1.73,.98-3.37,2.81-3.64,45.42-6,90.04-5.83,135.42,.53,1.82,.28,3.09,1.88,2.82,3.54-1.34,8.46-2.01,12.7-3.35,21.16-.26,1.67-1.87,2.8-3.58,2.55Z"/>
 <path class="cls-1" d="M121.94,85.69c-.5,.06-1-.15-1.3-.57-.5-.71-1.02-1.41-1.53-2.08,.09,.48,.19,.95,.29,1.4,.09,.41,0,.85-.28,1.18-.23,.28-.55,.46-.91,.51-.06,0-.12,.01-.19,.01-.9,0-1.18,.01-2.65,.21-.6,.08-1.12,.16-1.81,.36-.06,.02-.12,.03-.19,.04-.34,.05-.69-.03-.98-.23-.34-.23-.56-.61-.6-1.02-.18-1.98-.39-3.8-.67-5.74-.41-2.84-.92-5.68-1.78-9.77-.08-.39,.01-.79,.26-1.11,.23-.3,.58-.5,.96-.55,.03,0,.05,0,.08,0,1.19-.1,2.56-.28,3.56-.41,.41-.05,1.19-.18,1.94-.29,.82-.13,1.66-.25,2.17-.31,4.13-.5,6.33,1.05,6.73,4.67,.24,2.2-.25,4.05-1.37,5.3,1.21,1.54,3.06,3.73,4.62,5.4,.36,.39,.47,.95,.27,1.45-.19,.48-.63,.82-1.15,.87-.02,0-.03,0-.04,0-.67,.05-2.06,.21-3.07,.33-1.12,.13-1.64,.2-2.18,.34-.06,.02-.12,.03-.19,.04Zm-4.05-11.33c0-.14-.02-.31-.05-.5-.02-.18-.05-.31-.07-.42,.03,.25,.11,.86,.12,.92Z"/>
 <path class="cls-7" d="M116.9,78.15c.32,2.08,.66,4.54,1.13,6.59-1,0-1.36,.02-2.84,.23-.62,.09-1.22,.17-2.01,.4-.18-2.1-.39-3.92-.66-5.81-.42-2.99-.94-5.86-1.77-9.86,1.23-.1,2.61-.29,3.63-.42,.88-.11,3.15-.49,4.09-.61,3.23-.39,4.8,.5,5.14,3.45,.28,2.48-.54,4.17-1.87,4.93,1.13,1.55,3.64,4.54,5.52,6.55-.69,.05-2.07,.21-3.12,.33-1.18,.14-1.74,.21-2.37,.37-1.36-1.92-3.05-4.12-4.88-6.16Zm-.45-3.8c.1,.78,.2,1.55,.33,2.33,0,0,.45,.08,.99,0,1.2-.15,1.75-.92,1.49-3-.14-1.11-.45-2.11-2.05-1.91-.23,.03-.98,.12-1.04,.22-.16,.25,.18,1.58,.28,2.35Z"/>
 <path class="cls-1" d="M133.43,84.5c-5.34,.51-8.17-2.25-8.91-8.84-.72-6.36,1.5-9.38,7.42-9.91,6.71-.61,8.35,2.86,8.75,8.14,.35,4.62-.17,9.94-7.26,10.62Zm-1.16-13.04c-.15,.34-.15,1.36,0,3.01,.28,2.95,.61,3.85,.82,4.12,.1-.31,.21-1.14,0-3.4-.26-2.84-.63-3.57-.78-3.75,0,0-.04,0-.05,0Z"/>
 <path class="cls-7" d="M125.93,75.5c-.61-5.56,.96-7.91,6.14-8.38,5.16-.47,6.79,1.58,7.2,6.87,.46,5.87-1.05,8.66-5.98,9.13-4.19,.4-6.67-1.26-7.37-7.62Zm8.58-.42c-.35-3.88-.95-5.12-2.35-4.99-1.54,.14-1.57,1.69-1.3,4.53,.37,3.75,.86,5.55,2.41,5.41,1.28-.12,1.55-1.44,1.23-4.94Z"/>
 <path class="cls-1" d="M150.67,83.05c-.62,.03-1.19-.34-1.39-.93-.4-1.18-.61-1.77-1.02-2.94-.43,.02-.82,.05-1.05,.06-.21,.01-.57,.04-.96,.07-.16,1.22-.26,2.25-.31,2.83-.06,.69-.62,1.22-1.29,1.26-.06,0-.12,0-.18,0-.58-.04-1.49,0-2.1,.05-.95,.07-1.2,.09-1.98,.25-.06,.01-.12,.02-.18,.03-.41,.03-.81-.11-1.1-.41-.33-.33-.47-.81-.37-1.27,.22-.97,.45-1.95,.69-2.96,.87-3.7,1.89-7.88,3.03-13,.13-.6,.67-1.05,1.32-1.09,.01,0,.03,0,.04,0,.84-.03,2.09-.11,2.84-.15,.74-.04,1.19-.08,1.82-.14,.37-.03,.79-.07,1.36-.12,.01,0,.03,0,.04,0,.67-.03,1.27,.37,1.46,.98,1.81,5.91,5.07,14.4,5.43,15.35,.16,.43,.1,.91-.17,1.28-.25,.35-.65,.56-1.07,.58-.03,0-.07,0-.1,0-.86-.03-1.21,0-2.49,.06-.6,.03-1.79,.14-2.16,.2-.05,0-.09,.01-.14,.01Z"/>
 <path class="cls-7" d="M149.26,77.76c-.72,.02-1.69,.08-2.12,.1-.45,.03-1.44,.11-2.12,.18-.22,1.5-.37,2.96-.45,3.99-.7-.04-1.71,.01-2.29,.05-.96,.07-1.3,.1-2.16,.28,1.06-4.56,2.31-9.47,3.78-15.98,.86-.03,2.13-.11,2.87-.15,1.2-.07,1.67-.14,3.22-.26,1.69,5.44,4.63,13.14,5.51,15.45-.92-.03-1.3,0-2.6,.06-.6,.03-1.85,.14-2.3,.21-.53-1.57-.8-2.35-1.34-3.92Zm-2.76-7.59c-.12,.63-.55,2.59-.96,4.79,.41,0,.84-.03,1.27-.06,.45-.03,.93-.06,1.38-.1-.74-2.11-1.45-4-1.7-4.63Z"/>
 <path class="cls-1" d="M162.83,82.52c-.58,.02-1.08,0-1.62-.01-.64-.02-1.3-.03-2.2,0-.77,.03-1.56,.09-2.43,.18-.03,0-.06,0-.09,0-.36,.02-.72-.11-.99-.35-.29-.26-.46-.64-.46-1.03,.02-2.43-.02-4.63-.13-7.14-.15-3.38-.34-5.53-.77-8.21-.06-.4,.07-.81,.35-1.12,.26-.28,.63-.44,1.02-.46,.04,0,.08,0,.11,0,.88,.03,1.79,.02,2.19,0,.57-.02,1.32-.08,2.11-.14,1.01-.08,2.15-.16,3.28-.18,4.64-.09,7.53,1.35,7.58,8.52,.05,6.85-2.33,9.77-7.97,9.92Zm-.48-12.54c.01,1.17,.03,2.76,.05,3.61,.02,.7,.07,2.12,.11,3.17,.34-.27,.71-1.13,.64-3.85-.01-.61-.12-2.37-.8-2.93Z"/>
 <path class="cls-7" d="M156.33,74.12c-.13-3.2-.31-5.47-.75-8.36,.88,.03,1.81,.02,2.3,0,1.34-.04,3.38-.28,5.38-.32,3.6-.07,6.06,.49,6.13,7.16,.07,6.78-2.38,8.43-6.58,8.54-1.19,.03-2.11-.07-3.83-.01-.69,.02-1.52,.08-2.53,.19,.02-2.21,0-4.45-.11-7.21Zm8.24-1.24c-.02-.97-.17-4.5-2.75-4.44-.44,.01-.92,.13-.92,.13,0,0,.04,3.6,.08,5.06,.04,1.21,.18,4.48,.18,4.48,0,0,.34,.17,.97,.15,1.67-.05,2.52-1.28,2.43-5.38Z"/>
 <path class="cls-1" d="M174.68,82.51c-1.3,0-2.25-.14-3.76-.43-.65-.12-1.12-.68-1.12-1.33,0-.39,.01-.82,.03-1.33,.03-.67,.05-1.43,.05-2.3,0-.45,.22-.87,.59-1.13,.24-.16,.52-.25,.8-.25,.17,0,.33,.03,.49,.08,.63,.22,1.66,.37,2.57,.37,.02,0,.04,0,.06,0-.2-.1-.42-.2-.6-.28-1.7-.76-4.58-2.01-4.62-6.13-.06-5.84,5.74-5.85,7.64-5.83,1.79,.02,3.01,.23,4.06,.46,.7,.15,1.18,.77,1.12,1.45-.12,1.36-.18,2.04-.29,3.4-.04,.41-.26,.78-.61,1.01-.25,.16-.54,.25-.83,.24-.12,0-.25-.02-.37-.05-.6-.17-1.15-.28-1.63-.35,1.74,.72,4.38,2,4.3,6.04-.05,2.4-1.13,6.36-7.87,6.36Z"/>
 <path class="cls-7" d="M180.27,69.15c-.6-.16-1.79-.47-2.87-.48-1.43-.01-1.77,.49-1.78,1.02,0,2.13,5.61,1.06,5.52,6.43-.07,4.41-3.78,5.02-6.46,5.02-1.21,0-2.06-.13-3.49-.4,0-.84,.1-2.07,.09-3.63,.79,.28,1.99,.45,3.05,.45,1.13,0,2.01-.19,2.01-1.09,.01-2.29-5.71-1.34-5.75-6.69-.03-3.68,2.7-4.49,6.21-4.45,1.74,.02,2.88,.23,3.75,.42-.11,1.36-.17,2.04-.28,3.4Z"/>
 <path class="cls-1" d="M182.58,82.41c-.34,0-.67-.13-.92-.37-.31-.29-.48-.7-.44-1.12,.24-2.61,.36-5.62,.39-7.4,.07-3.83-.2-5.94-.49-7.78-.07-.42,.08-.84,.38-1.14,.28-.27,.67-.42,1.07-.41,.04,0,.08,0,.12,0,.75,.08,2.19,.12,2.88,.14,.7,.02,1.84,.01,2.53-.04,.06,0,.11,0,.17,0,.37,.01,.73,.16,.99,.42,.3,.3,.45,.7,.4,1.11-.21,1.69-.33,3.32-.39,4.45,.13,0,.25,.01,.37,.02,.16,0,.32,.01,.48,.01,0-1.56-.09-3.08-.18-4.4-.03-.41,.14-.81,.46-1.09,.28-.24,.65-.36,1.03-.35,.06,0,.11,0,.17,.02,.7,.11,2.16,.18,2.78,.21,.55,.03,1.1,.02,1.79,0,.26,0,.39,0,.65,0,.03,0,.07,0,.1,0,.39,.02,.76,.19,1.02,.47,.28,.3,.4,.71,.34,1.1-.35,2.13-.55,4.27-.76,8.2-.11,2.11-.21,4.23-.11,6.96,.01,.4-.15,.79-.46,1.06-.27,.24-.63,.36-1,.35-.04,0-.08,0-.12-.01-.62-.08-1.32-.17-2.15-.2-.75-.03-1.71-.03-2.62,0-.03,0-.07,0-.1,0-.37-.01-.73-.18-.98-.45-.28-.3-.4-.71-.34-1.11,.11-.72,.18-1.62,.22-2.58,.04-.95,.06-1.42,.1-2.37-.2-.01-.4-.02-.62-.03-.09,0-.18,0-.26,0-.03,1.44-.04,3.46,.08,5,.03,.41-.13,.81-.43,1.09-.27,.25-.63,.38-1,.37-.05,0-.09,0-.14-.01-.7-.09-1.52-.15-2.49-.17-.84-.02-1.64-.04-2.25,.06-.08,.01-.17,.02-.25,.02Z"/>
 <path class="cls-7" d="M191.25,78.51c.07-1.46,.1-2.19,.17-3.65-.72-.1-1.34-.14-2.04-.17-.59-.02-1.11-.04-1.68,0-.05,1.62-.09,4.45,.07,6.45-.89-.11-1.81-.16-2.64-.18-.92-.02-1.77-.04-2.51,.08,.23-2.39,.38-5.39,.42-7.5,.08-3.82-.18-5.99-.48-8,.81,.08,2.25,.12,2.99,.14,.7,.02,1.9,.01,2.69-.05-.25,2.1-.71,5.58-.44,5.88,.08,.09,1.19,.08,1.81,.11,.62,.02,1.83,.11,1.92,0,.44-.45,0-3.88-.14-5.83,.78,.12,2.27,.19,2.94,.22,.76,.04,1.51,0,2.53,0-.38,2.32-.56,4.59-.75,8.34-.11,2.18-.19,4.32-.09,7.08-.76-.1-1.45-.18-2.28-.22-.83-.04-1.84-.04-2.74,0,.06-.39,.19-1.31,.24-2.73Z"/>
 <path class="cls-1" d="M204.09,83.52c-5.35-.37-7.69-3.49-7.35-9.98,.32-6.26,3-8.82,8.92-8.38,6.71,.5,7.77,4.11,7.31,9.28-.4,4.52-1.77,9.57-8.88,9.08Zm.97-12.78c-.2,.31-.36,1.29-.48,2.91-.2,2.89-.02,3.82,.14,4.12,.15-.28,.39-1.07,.55-3.28,.2-2.79-.04-3.55-.16-3.74,0,0-.04,0-.05,0Z"/>
 <path class="cls-7" d="M198.16,73.61c.3-5.47,2.23-7.49,7.41-7.1,5.16,.38,6.44,2.62,5.99,7.8-.49,5.74-2.44,8.2-7.38,7.86-4.2-.29-6.38-2.29-6.03-8.55Zm8.53,.98c.28-3.8-.1-5.1-1.51-5.2-1.54-.11-1.83,1.38-2.01,4.16-.24,3.68-.05,5.5,1.5,5.61,1.28,.09,1.76-1.14,2.02-4.57Z"/>
 <path class="cls-1" d="M224.58,85.41c-.64-.08-1.16-.58-1.23-1.22-.05-.48-.07-.72-.11-1.19-.08-.79-.16-1.61-.24-2.44-.57,1.39-.85,2.09-1.41,3.49-.23,.57-.83,.91-1.44,.85-.06,0-.11-.02-.17-.03-.8-.18-1.66-.29-2.24-.35-.75-.08-1.2-.08-1.68-.09-.28,0-.56-.01-.89-.03-.02,0-.05,0-.07,0-.65-.06-1.18-.56-1.25-1.2-.73-6.12-1.57-11.09-2.63-15.64-.1-.43,.03-.88,.35-1.2,.3-.3,.74-.45,1.18-.41,.03,0,.05,0,.08,0,.77,.11,1.68,.2,2.49,.27,.9,.09,2.21,.17,2.75,.19,.04,0,.07,0,.11,0,.68,.07,1.22,.57,1.3,1.22,.15,1.29,.3,2.48,.46,3.59,.41-1.16,.79-2.31,1.05-3.33,.17-.66,.83-1.08,1.55-1,.03,0,.07,0,.1,.01,.86,.15,1.78,.29,2.88,.42,.79,.09,1.31,.16,2.07,.17,.05,0,.11,0,.16,.01,.68,.08,1.22,.61,1.28,1.26,.08,1.04,.22,2.2,.37,3.37,.36-1.04,.69-2.08,.96-3.07,.18-.66,.86-1.07,1.57-.97,.06,0,.12,.02,.18,.03,.43,.11,.95,.21,1.59,.29,.97,.13,1.73,.24,2.59,.28,.05,0,.1,0,.14,.01,.43,.06,.82,.31,1.05,.66,.25,.4,.27,.88,.06,1.29-1.37,2.57-2.65,5.49-4.11,8.88-.77,1.79-1.56,3.64-2.43,5.65-.25,.56-.85,.88-1.46,.81-.07,0-.13-.02-.19-.04-.57-.15-1.21-.27-2.12-.38-.98-.12-1.66-.16-2.43-.15-.06,0-.13,0-.19,0Z"/>
 <path class="cls-7" d="M220.28,83.56c-.88-.2-1.81-.32-2.42-.38-1.23-.12-1.73-.08-2.65-.13-.6-5.21-1.39-10.5-2.61-15.76,.81,.12,1.73,.2,2.56,.28,.88,.08,2.25,.18,2.85,.2,.36,2.98,.77,5.95,1.38,8.96,.94-2.61,2.28-5.84,2.97-8.49,.99,.18,1.95,.31,2.97,.43,.81,.1,1.38,.17,2.22,.18,.25,2.98,.86,6.81,1.25,8.97,1.02-2.79,2.16-5.68,2.91-8.39,.54,.14,1.14,.24,1.76,.33,.97,.13,1.8,.25,2.73,.3-2.11,3.97-4,8.78-6.53,14.62-.61-.17-1.3-.3-2.32-.42-1.05-.13-1.79-.17-2.62-.16-.27-2.87-.56-6.22-1.03-8.98-1.39,3.38-2.07,5.07-3.42,8.46Z"/>
</svg>
