<?xml version="1.0" encoding="UTF-8"?><svg id="Layer_2" xmlns="http://www.w3.org/2000/svg" viewBox="0 0 86.34 55.77"><defs><style>.cls-1{fill:#6d6e71;}.cls-2{fill:#635c5a;}</style></defs><g id="Layer_1-2"><g><path class="cls-1" d="M21.08,8.79c0,5.38-.79,8.31-10.53,9.66C5.22,19.18-1.4,14.56,.26,8.55,1.69,3.37,6.52,0,11.9,0c2.61,0,9.18,3.41,9.18,8.79Z"/><path class="cls-1" d="M59.54,46.04c0,5.38-.79,8.31-10.53,9.66-5.33,.74-11.95-3.88-10.29-9.89,1.43-5.18,6.26-8.55,11.64-8.55,2.61,0,9.18,3.41,9.18,8.79Z"/><path class="cls-2" d="M22.94,16.52c0-8.89,1.31-13.74,17.4-15.96,8.8-1.22,19.76,6.41,17.01,16.35-2.37,8.57-10.34,14.13-19.23,14.13-4.32,0-15.18-5.63-15.18-14.52Z"/><path class="cls-2" d="M0,38.87C0,32.16,.99,28.5,13.14,26.82c6.65-.92,14.92,4.84,12.84,12.35-1.79,6.47-7.81,10.67-14.52,10.67C8.2,49.83,0,45.58,0,38.87Z"/><path class="cls-1" d="M60.87,25.01c0-6.5,.96-10.05,12.72-11.67,6.44-.89,14.45,4.69,12.44,11.96-1.73,6.26-7.56,10.33-14.06,10.33-3.16,0-11.1-4.12-11.1-10.62Z"/></g></g></svg>