<svg version="1.1" viewBox="0 0 308.12 70.37" xmlns="http://www.w3.org/2000/svg">
 <defs>
  <style>.cls-1{fill:#d8d8d8;}.cls-2{fill:#ceecf2;}.cls-3{fill:#d92b04;}.cls-4{fill:#a0a0a0;}.cls-5{fill:#444;}.cls-6{fill:#f26b1d;}.cls-7{fill:#635c5a;}.cls-8{fill:#bcbcbc;}.cls-9{fill:#f20505;}.cls-10{fill:#231f20;}</style>
 </defs>
 <rect class="cls-7" x="206.19" y="6.09" width="63.37" height="58.39"/>
 <rect class="cls-10" transform="translate(218.04 -201.3) rotate(90)" x="201.3" width="16.74" height="16.74" rx="1.82" ry="1.82"/>
 <rect class="cls-10" transform="translate(271.67 -147.67) rotate(90)" x="201.3" y="53.63" width="16.74" height="16.74" rx="1.82" ry="1.82"/>
 <rect class="cls-10" transform="translate(295.39 -278.65) rotate(90)" x="278.65" width="16.74" height="16.74" rx="1.82" ry="1.82"/>
 <rect class="cls-10" transform="translate(349.02 -225.02) rotate(90)" x="278.65" y="53.63" width="16.74" height="16.74" rx="1.82" ry="1.82"/>
 <rect class="cls-10" transform="translate(45.88 -29.15) rotate(90)" x="29.15" width="16.74" height="16.74" rx="1.82" ry="1.82"/>
 <rect class="cls-10" transform="translate(99.51 24.48) rotate(90)" x="29.15" y="53.63" width="16.74" height="16.74" rx="1.82" ry="1.82"/>
 <rect class="cls-8" y="3.5" width="241.76" height="63.37"/>
 <rect class="cls-3" x="244.74" y="3.5" width="63.37" height="63.37"/>
 <rect class="cls-10" x="295.55" y="8.37" width="12.57" height="52.94"/>
 <rect class="cls-2" x="270.65" y="8.06" width="19.46" height="54.31" rx="1.51" ry="1.51"/>
 <rect class="cls-5" transform="translate(311.91 -268.16) rotate(90)" x="281.35" y="21.34" width="17.37" height="1.06" rx=".53" ry=".53"/>
 <rect class="cls-5" transform="translate(338.6 -241.48) rotate(90)" x="281.35" y="48.03" width="17.37" height="1.06" rx=".53" ry=".53"/>
 <rect class="cls-1" transform="translate(324.98 -287.62) rotate(90)" x="300.81" y="16.86" width="10.98" height="3.64" rx=".73" ry=".73"/>
 <rect class="cls-1" transform="translate(358.05 -254.55) rotate(90)" x="300.81" y="49.93" width="10.98" height="3.64" rx=".73" ry=".73"/>
 <rect class="cls-9" transform="translate(20.47 16.83) rotate(90)" x="-3.67" y="16.83" width="10.98" height="3.64" rx=".73" ry=".73"/>
 <rect class="cls-9" transform="translate(53.54 49.9) rotate(90)" x="-3.67" y="49.9" width="10.98" height="3.64" rx=".73" ry=".73"/>
 <rect class="cls-6" transform="translate(284.28 -246.98) rotate(90)" x="260.14" y="16.83" width="10.98" height="3.64" rx=".73" ry=".73"/>
 <rect class="cls-6" transform="translate(317.35 -213.91) rotate(90)" x="260.14" y="49.9" width="10.98" height="3.64" rx=".73" ry=".73"/>
 <rect class="cls-4" x="9.92" y="15.75" width="225.25" height="3.86"/>
 <rect class="cls-4" x="9.92" y="50.75" width="225.25" height="3.86"/>
 <rect class="cls-4" x="9.92" y="33.25" width="225.25" height="3.86"/>
</svg>
