<?xml version="1.0" encoding="UTF-8"?><svg id="Layer_2" xmlns="http://www.w3.org/2000/svg" viewBox="0 0 75.45 69.21"><defs><style>.cls-1{fill:#00571d;}</style></defs><g id="Layer_1-2"><path class="cls-1" d="M68.64,28.01c-.35-.17-.72-.33-1.1-.49,1.39-4.17,2.05-7.96,1.42-10.31-1.23-4.58-5.37-5.62-11.91-5.62-.86-2.98-1.96-5.38-3.29-6.68-2.85-2.79-6.2-2.39-10.54-.22-1.74-1.18-3.71-2.31-5.91-3.36-1.56-.75-3.39-1.21-5.35-1.3-2-.09-4.51,.03-6.24,.92-3.21,1.66-5.66,6.01-5.69,10.28-1.87-.04-4.03,.14-5.57,.94-3.31,1.71-5.83,6.3-5.7,10.69,.03,.86,.12,1.81,.26,2.82-1.2,.38-2.41,.93-3.56,1.68-1.68,1.09-3.64,2.65-4.53,4.39-1.69,3.32-1.06,8.52,1.62,12.01,1.94,2.53,5.22,5.45,8.94,8.14-.22,.98-.43,1.98-.6,3.03-.28,1.71-.21,3.59,.26,5.5,.47,1.95,1.29,4.32,2.63,5.73,2.57,2.7,7.68,3.83,11.86,2.47,3.24-1.05,7.42-3.39,11.43-6.25,.87,.68,1.79,1.35,2.78,2.01,1.44,.96,3.18,1.69,5.11,2.06,1.97,.38,4.46,.63,6.3,0,3.53-1.21,6.68-5.38,7.19-9.75,.09-.8,.14-1.67,.15-2.61,3.48-1.13,7.22-3.07,11.11-5.98,1.39-1.03,2.65-2.44,3.64-4.13,1.01-1.73,2.07-4,2.09-5.95,.03-3.73-2.86-8.09-6.81-10.02Z"/></g></svg>